<?xml version="1.0" encoding="UTF-8"?>
<!DOCTYPE svg PUBLIC "-//W3C//DTD SVG 1.1//EN" "http://www.w3.org/Graphics/SVG/1.1/DTD/svg11.dtd">
<svg xmlns="http://www.w3.org/2000/svg" version="1.1" width="589px" height="295px" style="shape-rendering:geometricPrecision; text-rendering:geometricPrecision; image-rendering:optimizeQuality; fill-rule:evenodd; clip-rule:evenodd" xmlns:xlink="http://www.w3.org/1999/xlink">
<g><path style="opacity:1" fill="#cf433a" d="M 319.5,14.5 C 324.566,14.3399 329.566,14.8399 334.5,16C 336.036,19.4171 334.869,21.2504 331,21.5C 329.624,21.3158 328.791,20.6491 328.5,19.5C 329.833,19.5 331.167,19.5 332.5,19.5C 332.5,18.5 332.5,17.5 332.5,16.5C 330.219,16.0773 328.552,16.744 327.5,18.5C 325.106,17.9853 322.772,17.3186 320.5,16.5C 320.167,15.8333 319.833,15.1667 319.5,14.5 Z"/></g>
<g><path style="opacity:0.063" fill="#6f605f" d="M 292.5,16.5 C 293.833,17.1667 293.833,17.1667 292.5,16.5 Z"/></g>
<g><path style="opacity:0.09" fill="#9f9698" d="M 319.5,14.5 C 319.833,15.1667 320.167,15.8333 320.5,16.5C 318.075,16.684 318.075,17.3507 320.5,18.5C 319.675,19.3857 318.675,19.719 317.5,19.5C 317.34,17.8008 317.506,16.1341 318,14.5C 318.69,13.2617 319.19,13.2617 319.5,14.5 Z"/></g>
<g><path style="opacity:1" fill="#ee0705" d="M 328.5,19.5 C 328.5,18.8333 328.167,18.5 327.5,18.5C 328.552,16.744 330.219,16.0773 332.5,16.5C 332.5,17.5 332.5,18.5 332.5,19.5C 331.167,19.5 329.833,19.5 328.5,19.5 Z"/></g>
<g><path style="opacity:1" fill="#c54c44" d="M 270.5,18.5 C 281.564,19.2942 281.897,20.2942 271.5,21.5C 269.5,21.1667 267.5,20.8333 265.5,20.5C 267.291,19.8302 268.958,19.1635 270.5,18.5 Z"/></g>
<g><path style="opacity:0.035" fill="#a6a6b1" d="M 336.5,20.5 C 337.251,19.4265 338.251,19.2599 339.5,20C 338.648,21.7284 337.648,21.895 336.5,20.5 Z"/></g>
<g><path style="opacity:0.286" fill="#dc6764" d="M 307.5,22.5 C 292.496,22.7002 277.496,23.0335 262.5,23.5C 277.475,21.5352 292.475,21.2019 307.5,22.5 Z"/></g>
<g><path style="opacity:0.859" fill="#c6564c" d="M 309.5,22.5 C 309.56,21.9569 309.893,21.6236 310.5,21.5C 315.299,22.1175 319.966,22.7841 324.5,23.5C 319.405,23.7787 314.405,23.4454 309.5,22.5 Z"/></g>
<g><path style="opacity:1" fill="#cf5752" d="M 257.5,23.5 C 248.745,25.4171 240.078,27.7504 231.5,30.5C 226.527,31.1637 221.527,31.4971 216.5,31.5C 223.622,30.292 230.956,28.4586 238.5,26C 244.809,24.9198 251.142,24.0865 257.5,23.5 Z"/></g>
<g><path style="opacity:1" fill="#fb0101" d="M 364.5,31.5 C 364.833,31.5 365.167,31.5 365.5,31.5C 366.018,32.5774 366.352,33.7441 366.5,35C 365.622,36.8001 364.955,38.6334 364.5,40.5C 362.876,40.6399 361.71,39.9733 361,38.5C 359.489,39.564 359.323,40.8974 360.5,42.5C 359.375,44.377 359.709,46.2103 361.5,48C 360,48.1667 358.5,48.3333 357,48.5C 352.889,47.4282 348.722,46.2615 344.5,45C 311.083,41.6695 277.75,41.6695 244.5,45C 242.685,45.7568 241.019,46.5902 239.5,47.5C 236.482,47.3354 233.482,47.502 230.5,48C 230.043,48.414 229.709,48.914 229.5,49.5C 215.295,52.145 200.962,54.4783 186.5,56.5C 186.664,53.8127 186.497,51.146 186,48.5C 185.617,47.944 185.117,47.6107 184.5,47.5C 184.672,46.5084 184.338,45.8417 183.5,45.5C 183.007,43.1944 182.674,40.861 182.5,38.5C 189.157,37.5013 195.824,36.5013 202.5,35.5C 203.243,34.8182 203.909,34.1515 204.5,33.5C 207.518,33.6646 210.518,33.498 213.5,33C 214.416,32.7216 215.082,32.2216 215.5,31.5C 215.833,31.5 216.167,31.5 216.5,31.5C 221.527,31.4971 226.527,31.1637 231.5,30.5C 242.194,30.1631 252.528,28.3297 262.5,25C 284.833,24.3333 307.167,24.3333 329.5,25C 332.861,25.0536 335.861,26.0536 338.5,28C 347.229,28.839 355.896,30.0056 364.5,31.5 Z"/></g>
<g><path style="opacity:0.863" fill="#cc706b" d="M 338.5,24.5 C 342.509,24.8583 346.509,25.3583 350.5,26C 352.32,26.2004 353.653,27.0337 354.5,28.5C 348.789,28.173 343.456,26.8396 338.5,24.5 Z"/></g>
<g><path style="opacity:1" fill="#e31f1a" d="M 307.5,22.5 C 308.167,22.5 308.833,22.5 309.5,22.5C 314.405,23.4454 319.405,23.7787 324.5,23.5C 325.117,23.3893 325.617,23.056 326,22.5C 330.086,23.4495 334.253,24.1162 338.5,24.5C 343.456,26.8396 348.789,28.173 354.5,28.5C 358.162,28.7234 361.495,29.7234 364.5,31.5C 355.896,30.0056 347.229,28.839 338.5,28C 335.861,26.0536 332.861,25.0536 329.5,25C 307.167,24.3333 284.833,24.3333 262.5,25C 252.528,28.3297 242.194,30.1631 231.5,30.5C 240.078,27.7504 248.745,25.4171 257.5,23.5C 259.167,23.5 260.833,23.5 262.5,23.5C 277.496,23.0335 292.496,22.7002 307.5,22.5 Z"/></g>
<g><path style="opacity:1" fill="#d14d41" d="M 215.5,31.5 C 215.082,32.2216 214.416,32.7216 213.5,33C 210.518,33.498 207.518,33.6646 204.5,33.5C 207.943,32.6647 211.443,31.6647 215,30.5C 215.399,30.7284 215.565,31.0618 215.5,31.5 Z"/></g>
<g><path style="opacity:1" fill="#d6342d" d="M 204.5,33.5 C 203.909,34.1515 203.243,34.8182 202.5,35.5C 195.824,36.5013 189.157,37.5013 182.5,38.5C 182.674,40.861 183.007,43.1944 183.5,45.5C 182.326,44.4863 181.66,43.153 181.5,41.5C 181.5,40.5 181.5,39.5 181.5,38.5C 188.877,36.0762 196.544,34.4096 204.5,33.5 Z"/></g>
<g><path style="opacity:1" fill="#733d7c" d="M 181.5,38.5 C 181.5,39.5 181.5,40.5 181.5,41.5C 178.609,40.5975 175.609,40.2641 172.5,40.5C 174.939,39.1833 177.439,38.1833 180,37.5C 180.383,38.056 180.883,38.3893 181.5,38.5 Z"/></g>
<g><path style="opacity:1" fill="#db4338" d="M 365.5,31.5 C 369.056,31.6423 372.39,32.4756 375.5,34C 370.684,36.2465 366.35,39.2465 362.5,43C 365.909,43.9958 369.242,44.8292 372.5,45.5C 368.818,45.6653 365.152,45.4986 361.5,45C 361.116,44.0494 360.783,43.2161 360.5,42.5C 359.323,40.8974 359.489,39.564 361,38.5C 361.71,39.9733 362.876,40.6399 364.5,40.5C 364.955,38.6334 365.622,36.8001 366.5,35C 366.352,33.7441 366.018,32.5774 365.5,31.5 Z"/></g>
<g><path style="opacity:1" fill="#594993" d="M 172.5,40.5 C 169.495,42.2766 166.162,43.2766 162.5,43.5C 165.505,41.7234 168.838,40.7234 172.5,40.5 Z"/></g>
<g><path style="opacity:1" fill="#534390" d="M 162.5,43.5 C 159.201,45.4835 155.534,46.4835 151.5,46.5C 154.907,44.9257 158.573,43.9257 162.5,43.5 Z"/></g>
<g><path style="opacity:0.998" fill="#fbfafa" d="M 270.5,44.5 C 286.833,44.5 303.167,44.5 319.5,44.5C 320.334,45.7479 321.667,46.4146 323.5,46.5C 333.898,47.5422 344.231,48.8755 354.5,50.5C 361.068,52.5784 367.734,54.2451 374.5,55.5C 372.852,56.9265 370.852,57.7599 368.5,58C 366.5,61.3333 363.833,64 360.5,66C 368.494,67.277 376.494,68.4437 384.5,69.5C 385.167,69.5 385.833,69.5 386.5,69.5C 401.41,72.3775 416.41,75.3775 431.5,78.5C 445.897,81.518 460.23,85.1847 474.5,89.5C 475.942,90.8195 476.608,92.4862 476.5,94.5C 474.358,93.4474 474.192,93.7808 476,95.5C 481.073,97.8009 486.239,99.8009 491.5,101.5C 492.773,102.077 492.773,102.743 491.5,103.5C 488.961,102.885 486.461,102.218 484,101.5C 482.511,102.424 482.344,103.424 483.5,104.5C 491,109.25 499,112.917 507.5,115.5C 507.918,116.222 508.584,116.722 509.5,117C 508.833,117.333 508.167,117.667 507.5,118C 509.384,118.216 511.051,118.883 512.5,120C 512,120.5 511.5,121 511,121.5C 506.514,120.783 502.18,119.45 498,117.5C 497.127,117.735 496.293,118.069 495.5,118.5C 492.904,117.518 490.238,116.851 487.5,116.5C 445.757,104.648 403.423,95.4811 360.5,89C 364.526,87.6406 367.193,84.974 368.5,81C 370.715,80.8295 372.715,80.1628 374.5,79C 364.105,75.6209 353.438,73.4542 342.5,72.5C 342.611,71.8826 342.944,71.3826 343.5,71C 340.832,70.433 338.166,69.933 335.5,69.5C 307.497,66.8503 279.497,66.8503 251.5,69.5C 248.904,70.2653 246.237,70.5987 243.5,70.5C 238.652,70.8603 234.986,72.1936 232.5,74.5C 217.595,76.5295 202.928,79.1961 188.5,82.5C 187.542,82.0472 186.708,81.3805 186,80.5C 185.501,74.8431 185.334,69.1764 185.5,63.5C 185.5,62.1667 185.5,60.8333 185.5,59.5C 200.983,55.8036 216.65,53.1369 232.5,51.5C 239.112,50.3413 245.779,49.508 252.5,49C 258.816,47.7058 264.816,46.2058 270.5,44.5 Z"/></g>
<g><path style="opacity:1" fill="#fbb9b8" d="M 270.5,44.5 C 264.816,46.2058 258.816,47.7058 252.5,49C 245.779,49.508 239.112,50.3413 232.5,51.5C 235.06,50.4121 237.394,49.0788 239.5,47.5C 249.813,46.2634 260.146,45.2634 270.5,44.5 Z"/></g>
<g><path style="opacity:1" fill="#f8b8b7" d="M 319.5,44.5 C 329.866,45.2808 340.2,46.4475 350.5,48C 351.858,48.9344 353.192,49.7677 354.5,50.5C 344.231,48.8755 333.898,47.5422 323.5,46.5C 321.667,46.4146 320.334,45.7479 319.5,44.5 Z"/></g>
<g><path style="opacity:1" fill="#e43025" d="M 360.5,42.5 C 360.783,43.2161 361.116,44.0494 361.5,45C 365.152,45.4986 368.818,45.6653 372.5,45.5C 377.58,45.8783 382.58,46.545 387.5,47.5C 387.833,48.1667 388.167,48.8333 388.5,49.5C 380.783,48.6783 373.116,47.6783 365.5,46.5C 365.5,47.5 365.5,48.5 365.5,49.5C 364.127,49.3433 362.793,49.51 361.5,50C 364.84,52.009 368.507,53.1757 372.5,53.5C 373.713,53.7472 374.38,54.4138 374.5,55.5C 367.734,54.2451 361.068,52.5784 354.5,50.5C 353.192,49.7677 351.858,48.9344 350.5,48C 340.2,46.4475 329.866,45.2808 319.5,44.5C 303.167,44.5 286.833,44.5 270.5,44.5C 260.146,45.2634 249.813,46.2634 239.5,47.5C 241.019,46.5902 242.685,45.7568 244.5,45C 277.75,41.6695 311.083,41.6695 344.5,45C 348.722,46.2615 352.889,47.4282 357,48.5C 358.5,48.3333 360,48.1667 361.5,48C 359.709,46.2103 359.375,44.377 360.5,42.5 Z"/></g>
<g><path style="opacity:1" fill="#f80503" d="M 388.5,49.5 C 394.442,50.5306 400.442,51.1973 406.5,51.5C 407.167,51.5 407.833,51.5 408.5,51.5C 411.234,53.4424 414.234,54.9424 417.5,56C 423.161,56.6328 428.828,57.1328 434.5,57.5C 435.167,57.5 435.833,57.5 436.5,57.5C 436.5,58.5 436.5,59.5 436.5,60.5C 443.258,60.387 449.925,61.0537 456.5,62.5C 460.619,63.0966 464.619,64.0966 468.5,65.5C 468.611,66.1174 468.944,66.6174 469.5,67C 473.453,68.1482 477.453,68.9816 481.5,69.5C 481.833,69.5 482.167,69.5 482.5,69.5C 479.401,70.8654 476.068,71.8654 472.5,72.5C 472.957,73.2975 473.624,73.6309 474.5,73.5C 474.833,73.5 475.167,73.5 475.5,73.5C 476.73,75.2972 477.396,77.2972 477.5,79.5C 471.034,79.7104 471.034,80.377 477.5,81.5C 478.552,83.256 480.219,83.9227 482.5,83.5C 483.183,85.1765 484.517,85.8432 486.5,85.5C 486.5,86.5 486.5,87.5 486.5,88.5C 493.436,89.2194 499.77,91.5527 505.5,95.5C 498.988,95.9328 492.654,94.9328 486.5,92.5C 482.516,91.5124 478.516,90.5124 474.5,89.5C 460.23,85.1847 445.897,81.518 431.5,78.5C 416.996,73.2548 401.996,70.2548 386.5,69.5C 385.833,69.5 385.167,69.5 384.5,69.5C 379.062,68.1928 373.729,66.3595 368.5,64C 369.354,62.9783 370.354,62.1449 371.5,61.5C 372.609,62.5896 373.609,62.5896 374.5,61.5C 374.561,59.4392 374.561,57.4392 374.5,55.5C 374.38,54.4138 373.713,53.7472 372.5,53.5C 368.507,53.1757 364.84,52.009 361.5,50C 362.793,49.51 364.127,49.3433 365.5,49.5C 365.5,48.5 365.5,47.5 365.5,46.5C 373.116,47.6783 380.783,48.6783 388.5,49.5 Z"/></g>
<g><path style="opacity:1" fill="#d84b41" d="M 387.5,47.5 C 394.094,48.1071 400.428,49.4404 406.5,51.5C 400.442,51.1973 394.442,50.5306 388.5,49.5C 388.167,48.8333 387.833,48.1667 387.5,47.5 Z"/></g>
<g><path style="opacity:1" fill="#4f3c8d" d="M 151.5,46.5 C 145.987,49.917 139.987,52.2503 133.5,53.5C 138.957,50.1175 144.957,47.7842 151.5,46.5 Z"/></g>
<g><path style="opacity:0.008" fill="#df7776" d="M 418.5,53.5 C 421.428,53.5651 424.095,54.2318 426.5,55.5C 423.505,55.7062 420.838,55.0395 418.5,53.5 Z"/></g>
<g><path style="opacity:1" fill="#dd201e" d="M 184.5,47.5 C 185.117,47.6107 185.617,47.944 186,48.5C 186.497,51.146 186.664,53.8127 186.5,56.5C 200.962,54.4783 215.295,52.145 229.5,49.5C 229.709,48.914 230.043,48.414 230.5,48C 233.482,47.502 236.482,47.3354 239.5,47.5C 237.394,49.0788 235.06,50.4121 232.5,51.5C 216.65,53.1369 200.983,55.8036 185.5,59.5C 185.167,55.5 184.833,51.5 184.5,47.5 Z"/></g>
<g><path style="opacity:1" fill="#e13b2d" d="M 408.5,51.5 C 411.969,51.5465 415.302,52.2132 418.5,53.5C 420.838,55.0395 423.505,55.7062 426.5,55.5C 429.428,55.5651 432.095,56.2318 434.5,57.5C 428.828,57.1328 423.161,56.6328 417.5,56C 414.234,54.9424 411.234,53.4424 408.5,51.5 Z"/></g>
<g><path style="opacity:1" fill="#5a1475" d="M 183.5,45.5 C 184.338,45.8417 184.672,46.5084 184.5,47.5C 184.833,51.5 185.167,55.5 185.5,59.5C 185.5,60.8333 185.5,62.1667 185.5,63.5C 183.069,62.3932 182.069,60.3932 182.5,57.5C 183.164,53.524 183.497,49.524 183.5,45.5 Z"/></g>
<g><path style="opacity:1" fill="#301b87" d="M 132.5,53.5 C 131.952,55.5323 130.619,56.5323 128.5,56.5C 128.5,57.5 128.5,58.5 128.5,59.5C 126.123,59.7845 123.956,59.7845 122,59.5C 117.857,61.8301 113.357,63.1634 108.5,63.5C 116.243,59.6309 124.243,56.2975 132.5,53.5 Z"/></g>
<g><path style="opacity:1" fill="#dd4133" d="M 436.5,57.5 C 443.402,58.6751 450.069,60.3418 456.5,62.5C 449.925,61.0537 443.258,60.387 436.5,60.5C 436.5,59.5 436.5,58.5 436.5,57.5 Z"/></g>
<g><path style="opacity:1" fill="#e6211a" d="M 374.5,55.5 C 374.561,57.4392 374.561,59.4392 374.5,61.5C 373.609,62.5896 372.609,62.5896 371.5,61.5C 370.354,62.1449 369.354,62.9783 368.5,64C 373.729,66.3595 379.062,68.1928 384.5,69.5C 376.494,68.4437 368.494,67.277 360.5,66C 363.833,64 366.5,61.3333 368.5,58C 370.852,57.7599 372.852,56.9265 374.5,55.5 Z"/></g>
<g><path style="opacity:1" fill="#050505" d="M 335.5,69.5 C 334.391,70.29 333.058,70.79 331.5,71C 335.214,71.3195 338.881,71.8195 342.5,72.5C 353.438,73.4542 364.105,75.6209 374.5,79C 372.715,80.1628 370.715,80.8295 368.5,81C 367.193,84.974 364.526,87.6406 360.5,89C 403.423,95.4811 445.757,104.648 487.5,116.5C 489.041,117.667 490.375,119 491.5,120.5C 491.167,120.5 490.833,120.5 490.5,120.5C 487.5,119.833 484.5,119.167 481.5,118.5C 480.167,118.5 478.833,118.5 477.5,118.5C 476.749,117.427 475.749,117.26 474.5,118C 475.244,119.039 476.244,119.539 477.5,119.5C 479.514,119.392 481.18,120.058 482.5,121.5C 486.39,122.985 490.39,124.485 494.5,126C 493.207,126.49 491.873,126.657 490.5,126.5C 488.565,125.85 486.565,125.517 484.5,125.5C 482.657,124.717 480.657,124.05 478.5,123.5C 477.784,124.311 476.95,124.978 476,125.5C 474.535,124.67 473.035,124.504 471.5,125C 475.032,126.632 478.699,127.799 482.5,128.5C 484.786,128.595 486.786,129.262 488.5,130.5C 488.5,131.833 489.167,132.5 490.5,132.5C 492.701,133.566 495.035,134.233 497.5,134.5C 497.5,135.167 497.833,135.5 498.5,135.5C 499.5,136.167 500.5,136.833 501.5,137.5C 501.833,137.5 502.167,137.5 502.5,137.5C 502.842,138.338 503.508,138.672 504.5,138.5C 505.959,138.433 507.292,138.766 508.5,139.5C 508.389,140.117 508.056,140.617 507.5,141C 509.087,141.862 510.754,142.529 512.5,143C 511.956,143.717 511.289,144.217 510.5,144.5C 510.167,144.5 509.833,144.5 509.5,144.5C 508.292,143.766 506.959,143.433 505.5,143.5C 503.708,143.634 502.042,143.301 500.5,142.5C 497.303,142.595 494.303,141.928 491.5,140.5C 488.071,138.552 484.405,137.052 480.5,136C 440.968,125.377 400.968,117.044 360.5,111C 364.526,109.641 367.193,106.974 368.5,103C 370.715,102.83 372.715,102.163 374.5,101C 369.254,100.094 364.254,98.5936 359.5,96.5C 359.196,95.8501 358.863,95.1835 358.5,94.5C 354.895,93.4614 351.228,92.7947 347.5,92.5C 323.583,89.9015 299.583,88.9015 275.5,89.5C 264.134,90.1693 252.801,91.1693 241.5,92.5C 238.187,93.0448 234.854,93.5448 231.5,94C 232.598,94.7697 232.598,95.603 231.5,96.5C 219.672,97.7602 208.005,99.7602 196.5,102.5C 194.833,98.5 193.167,94.5 191.5,90.5C 190.199,87.977 189.199,85.3103 188.5,82.5C 202.928,79.1961 217.595,76.5295 232.5,74.5C 235.545,74.4921 238.545,74.1587 241.5,73.5C 246.316,73.4197 250.983,72.5863 255.5,71C 253.942,70.79 252.609,70.29 251.5,69.5C 279.497,66.8503 307.497,66.8503 335.5,69.5 Z"/></g>
<g><path style="opacity:0.949" fill="#cf4640" d="M 468.5,65.5 C 473.158,66.0889 477.491,67.4222 481.5,69.5C 477.453,68.9816 473.453,68.1482 469.5,67C 468.944,66.6174 468.611,66.1174 468.5,65.5 Z"/></g>
<g><path style="opacity:1" fill="#959595" d="M 243.5,70.5 C 243.611,71.1174 243.944,71.6174 244.5,72C 243.263,72.2321 242.263,72.7321 241.5,73.5C 238.545,74.1587 235.545,74.4921 232.5,74.5C 234.986,72.1936 238.652,70.8603 243.5,70.5 Z"/></g>
<g><path style="opacity:1" fill="#595959" d="M 335.5,69.5 C 338.166,69.933 340.832,70.433 343.5,71C 342.944,71.3826 342.611,71.8826 342.5,72.5C 338.881,71.8195 335.214,71.3195 331.5,71C 333.058,70.79 334.391,70.29 335.5,69.5 Z"/></g>
<g><path style="opacity:1" fill="#414141" d="M 251.5,69.5 C 252.609,70.29 253.942,70.79 255.5,71C 250.983,72.5863 246.316,73.4197 241.5,73.5C 242.263,72.7321 243.263,72.2321 244.5,72C 243.944,71.6174 243.611,71.1174 243.5,70.5C 246.237,70.5987 248.904,70.2653 251.5,69.5 Z"/></g>
<g><path style="opacity:1" fill="#dc2c25" d="M 386.5,69.5 C 401.996,70.2548 416.996,73.2548 431.5,78.5C 416.41,75.3775 401.41,72.3775 386.5,69.5 Z"/></g>
<g><path style="opacity:1" fill="#bf6664" d="M 485.5,70.5 C 488.14,70.954 490.473,72.1207 492.5,74C 491.975,74.6924 491.308,75.1924 490.5,75.5C 488.425,74.2385 486.425,74.4052 484.5,76C 485.056,76.3826 485.389,76.8826 485.5,77.5C 483.973,77.573 482.973,76.9063 482.5,75.5C 483.506,75.0623 483.506,74.3957 482.5,73.5C 484.288,73.7852 485.955,73.4519 487.5,72.5C 486.757,71.8182 486.091,71.1515 485.5,70.5 Z"/></g>
<g><path style="opacity:1" fill="#dc332a" d="M 485.5,70.5 C 486.091,71.1515 486.757,71.8182 487.5,72.5C 485.955,73.4519 484.288,73.7852 482.5,73.5C 477.34,73.6051 477.34,74.2717 482.5,75.5C 482.973,76.9063 483.973,77.573 485.5,77.5C 486.167,77.5 486.833,77.5 487.5,77.5C 487.611,78.1174 487.944,78.6174 488.5,79C 487.207,79.49 485.873,79.6567 484.5,79.5C 482.265,79.2053 480.265,79.5386 478.5,80.5C 477.833,80.5 477.5,80.8333 477.5,81.5C 471.034,80.377 471.034,79.7104 477.5,79.5C 477.396,77.2972 476.73,75.2972 475.5,73.5C 477.477,72.4931 477.143,72.4931 474.5,73.5C 473.624,73.6309 472.957,73.2975 472.5,72.5C 476.068,71.8654 479.401,70.8654 482.5,69.5C 482.435,69.0618 482.601,68.7284 483,68.5C 483.995,69.0659 484.828,69.7326 485.5,70.5 Z"/></g>
<g><path style="opacity:1" fill="#f9f8fc" d="M 166.5,105.5 C 164.871,106.625 163.371,107.959 162,109.5C 161.566,105.777 160.732,105.61 159.5,109C 163.996,116.991 168.996,124.658 174.5,132C 165.966,129.333 157.466,126.166 149,122.5C 146.575,123.261 145.242,124.928 145,127.5C 142.059,130.532 139.226,133.698 136.5,137C 136.728,137.399 137.062,137.565 137.5,137.5C 137.5,137.833 137.5,138.167 137.5,138.5C 135.454,140.279 133.287,141.946 131,143.5C 130.833,143 130.667,142.5 130.5,142C 130.679,133.374 130.679,124.874 130.5,116.5C 122.669,112.644 114.669,109.311 106.5,106.5C 107.995,106.011 109.329,105.345 110.5,104.5C 113.598,104.587 113.932,104.087 111.5,103C 112.167,102.667 112.833,102.333 113.5,102C 116.955,101.88 119.622,101.38 121.5,100.5C 125.21,98.8643 129.21,98.1977 133.5,98.5C 133.792,88.8259 134.292,79.1592 135,69.5C 138.639,73.1102 140.972,77.4436 142,82.5C 144.678,86.5109 148.011,89.8442 152,92.5C 161.878,91.303 171.378,89.1363 180.5,86C 174.726,91.7174 170.06,98.2174 166.5,105.5 Z"/></g>
<g><path style="opacity:0.549" fill="#ae6766" d="M 484.5,79.5 C 485.873,79.6567 487.207,79.49 488.5,79C 487.944,78.6174 487.611,78.1174 487.5,77.5C 488.583,77.5394 489.583,77.8728 490.5,78.5C 490.833,77.8333 491.167,77.1667 491.5,76.5C 492.804,79.0916 494.804,80.9249 497.5,82C 493.036,81.6069 488.703,80.7735 484.5,79.5 Z"/></g>
<g><path style="opacity:0.902" fill="#c55044" d="M 478.5,80.5 C 479.151,81.0906 479.818,81.7573 480.5,82.5C 481.944,81.019 482.611,81.3523 482.5,83.5C 480.219,83.9227 478.552,83.256 477.5,81.5C 478.167,81.5 478.5,81.1667 478.5,80.5 Z"/></g>
<g><path style="opacity:0.031" fill="#9e9f9e" d="M 490.5,82.5 C 491.833,83.1667 491.833,83.1667 490.5,82.5 Z"/></g>
<g><path style="opacity:1" fill="#fcfbfb" d="M 275.5,89.5 C 299.583,88.9015 323.583,89.9015 347.5,92.5C 347.082,93.2216 346.416,93.7216 345.5,94C 350.179,94.882 354.846,95.7153 359.5,96.5C 364.254,98.5936 369.254,100.094 374.5,101C 372.715,102.163 370.715,102.83 368.5,103C 367.193,106.974 364.526,109.641 360.5,111C 400.968,117.044 440.968,125.377 480.5,136C 484.405,137.052 488.071,138.552 491.5,140.5C 490.207,141.158 488.707,141.492 487,141.5C 482.788,140.853 478.621,140.353 474.5,140C 480.381,142.773 486.381,145.273 492.5,147.5C 492.5,147.833 492.5,148.167 492.5,148.5C 487.796,147.716 483.129,146.716 478.5,145.5C 477.148,147.636 475.482,147.97 473.5,146.5C 472.304,146.846 472.304,147.346 473.5,148C 475.878,148.511 478.212,149.178 480.5,150C 478.122,150.974 478.456,151.641 481.5,152C 481.167,152.333 480.833,152.667 480.5,153C 483.203,152.474 485.87,152.974 488.5,154.5C 487.672,155.415 486.672,156.081 485.5,156.5C 480.318,156.145 474.985,155.479 469.5,154.5C 461.862,152.706 454.195,151.039 446.5,149.5C 430.741,145.139 414.741,141.806 398.5,139.5C 386.064,136.838 373.397,134.672 360.5,133C 362.684,131.637 364.684,130.137 366.5,128.5C 367.249,127.469 367.915,126.302 368.5,125C 370.5,124.333 372.5,123.667 374.5,123C 369.925,121.698 365.258,120.531 360.5,119.5C 358.786,118.262 356.786,117.595 354.5,117.5C 353.653,116.034 352.32,115.2 350.5,115C 343.989,113.303 337.322,111.97 330.5,111C 314.661,110.172 298.995,110.339 283.5,111.5C 279.5,111.5 275.5,111.5 271.5,111.5C 262.639,112.029 253.972,113.029 245.5,114.5C 241.018,114.034 237.018,115.034 233.5,117.5C 221.501,119.366 209.501,121.366 197.5,123.5C 197.364,118.303 197.697,113.137 198.5,108C 198.605,105.822 197.939,103.988 196.5,102.5C 208.005,99.7602 219.672,97.7602 231.5,96.5C 234.43,95.701 237.43,95.3677 240.5,95.5C 249.645,94.7264 258.645,93.5597 267.5,92C 270.31,91.2177 272.977,90.3844 275.5,89.5 Z"/></g>
<g><path style="opacity:0.404" fill="#7a72a3" d="M 76.5,82.5 C 77.3094,83.4687 78.3094,84.3021 79.5,85C 77.9559,85.2896 76.6226,85.9563 75.5,87C 77.7405,89.2862 80.4072,90.7862 83.5,91.5C 83.6495,92.552 83.4828,93.552 83,94.5C 80.8467,91.8757 78.0134,90.8757 74.5,91.5C 74.7135,89.8561 74.3802,88.3561 73.5,87C 74.748,85.6003 75.748,84.1003 76.5,82.5 Z"/></g>
<g><path style="opacity:0.094" fill="#a3a1b0" d="M 88.5,88.5 C 88.8333,88.5 89.1667,88.5 89.5,88.5C 90.4054,89.7024 90.4054,91.0357 89.5,92.5C 89.5,93.5 89.5,94.5 89.5,95.5C 88.8333,95.8333 88.1667,96.1667 87.5,96.5C 87.3225,95.3052 86.9891,94.1385 86.5,93C 87.7073,91.6998 88.3739,90.1998 88.5,88.5 Z"/></g>
<g><path style="opacity:1" fill="#4b4b4b" d="M 241.5,92.5 C 241.918,93.2216 242.584,93.7216 243.5,94C 242.263,94.2321 241.263,94.7321 240.5,95.5C 237.43,95.3677 234.43,95.701 231.5,96.5C 232.598,95.603 232.598,94.7697 231.5,94C 234.854,93.5448 238.187,93.0448 241.5,92.5 Z"/></g>
<g><path style="opacity:1" fill="#4c4c4c" d="M 347.5,92.5 C 351.228,92.7947 354.895,93.4614 358.5,94.5C 358.863,95.1835 359.196,95.8501 359.5,96.5C 354.846,95.7153 350.179,94.882 345.5,94C 346.416,93.7216 347.082,93.2216 347.5,92.5 Z"/></g>
<g><path style="opacity:1" fill="#b5b5b5" d="M 275.5,89.5 C 272.977,90.3844 270.31,91.2177 267.5,92C 258.645,93.5597 249.645,94.7264 240.5,95.5C 241.263,94.7321 242.263,94.2321 243.5,94C 242.584,93.7216 241.918,93.2216 241.5,92.5C 252.801,91.1693 264.134,90.1693 275.5,89.5 Z"/></g>
<g><path style="opacity:0.031" fill="#ba6e6f" d="M 506.5,93.5 C 509.847,93.783 512.513,95.283 514.5,98C 513.756,99.0386 512.756,99.5386 511.5,99.5C 509.959,97.4981 508.292,95.4981 506.5,93.5 Z"/></g>
<g><path style="opacity:1" fill="#d4382e" d="M 482.5,83.5 C 486.79,83.2164 490.123,84.7164 492.5,88C 497.344,89.5965 502.011,91.4298 506.5,93.5C 508.292,95.4981 509.959,97.4981 511.5,99.5C 511.565,99.9382 511.399,100.272 511,100.5C 504.658,98.4486 498.158,96.9486 491.5,96C 489.027,95.7805 487.36,94.6138 486.5,92.5C 492.654,94.9328 498.988,95.9328 505.5,95.5C 499.77,91.5527 493.436,89.2194 486.5,88.5C 486.5,87.5 486.5,86.5 486.5,85.5C 484.517,85.8432 483.183,85.1765 482.5,83.5 Z"/></g>
<g><path style="opacity:0.298" fill="#bebfbe" d="M 476.5,94.5 C 478.827,94.2471 480.827,94.9137 482.5,96.5C 483.167,96.1667 483.833,95.8333 484.5,95.5C 488.142,97.0854 491.808,98.4187 495.5,99.5C 493.517,99.1568 492.183,99.8235 491.5,101.5C 486.239,99.8009 481.073,97.8009 476,95.5C 474.192,93.7808 474.358,93.4474 476.5,94.5 Z"/></g>
<g><path style="opacity:0.004" fill="#dbdbdb" d="M 496.5,99.5 C 497.167,98.1667 497.833,98.1667 498.5,99.5C 497.833,99.5 497.167,99.5 496.5,99.5 Z"/></g>
<g><path style="opacity:0.008" fill="#7f807f" d="M 495.5,99.5 C 495.833,99.5 496.167,99.5 496.5,99.5C 496.315,100.17 495.981,100.17 495.5,99.5 Z"/></g>
<g><path style="opacity:0.008" fill="#7f807f" d="M 498.5,99.5 C 499.833,100.167 499.833,100.167 498.5,99.5 Z"/></g>
<g><path style="opacity:1" fill="#9388d3" d="M 110.5,104.5 C 109.329,105.345 107.995,106.011 106.5,106.5C 105.615,104.73 106.448,103.73 109,103.5C 109.765,103.57 110.265,103.903 110.5,104.5 Z"/></g>
<g><path style="opacity:1" fill="#8078a4" d="M 77.5,102.5 C 77.2267,104.451 77.8934,105.951 79.5,107C 78.376,107.249 77.376,107.749 76.5,108.5C 77.1716,110.16 78.1716,111.493 79.5,112.5C 77.712,112.785 76.0453,112.452 74.5,111.5C 74.7093,110.914 75.0426,110.414 75.5,110C 74.376,109.751 73.376,109.251 72.5,108.5C 73.2624,108.089 74.2624,107.923 75.5,108C 74.1854,106.605 74.5188,105.605 76.5,105C 74.2584,103.993 74.5918,103.159 77.5,102.5 Z"/></g>
<g><path style="opacity:1" fill="#fdcbca" d="M 283.5,111.5 C 298.995,110.339 314.661,110.172 330.5,111C 337.322,111.97 343.989,113.303 350.5,115C 352.32,115.2 353.653,116.034 354.5,117.5C 350.188,116.752 345.854,116.086 341.5,115.5C 341.082,114.778 340.416,114.278 339.5,114C 333.877,112.971 328.21,112.471 322.5,112.5C 309.537,111.557 296.537,111.223 283.5,111.5 Z"/></g>
<g><path style="opacity:1" fill="#d91614" d="M 271.5,112.5 C 271.5,112.167 271.5,111.833 271.5,111.5C 275.5,111.5 279.5,111.5 283.5,111.5C 296.537,111.223 309.537,111.557 322.5,112.5C 322.5,112.833 322.5,113.167 322.5,113.5C 305.528,112.557 288.528,112.224 271.5,112.5 Z"/></g>
<g><path style="opacity:1" fill="#2b0e7b" d="M 191.5,90.5 C 193.167,94.5 194.833,98.5 196.5,102.5C 197.939,103.988 198.605,105.822 198.5,108C 197.697,113.137 197.364,118.303 197.5,123.5C 197.614,125.718 198.28,127.718 199.5,129.5C 198.85,129.196 198.183,128.863 197.5,128.5C 196.669,120.855 196.169,113.188 196,105.5C 195.361,108.228 194.194,108.728 192.5,107C 193.894,106.044 194.561,104.711 194.5,103C 192.95,98.9668 191.95,94.8002 191.5,90.5 Z"/></g>
<g><path style="opacity:1" fill="#fa0303" d="M 271.5,112.5 C 288.528,112.224 305.528,112.557 322.5,113.5C 328.833,114.167 335.167,114.833 341.5,115.5C 345.854,116.086 350.188,116.752 354.5,117.5C 356.786,117.595 358.786,118.262 360.5,119.5C 360.918,120.222 361.584,120.722 362.5,121C 362.167,121.333 361.833,121.667 361.5,122C 364.5,122.333 367.5,122.667 370.5,123C 367.124,123.307 365.79,125.14 366.5,128.5C 364.54,129.138 362.707,129.138 361,128.5C 360.399,130.137 359.899,131.803 359.5,133.5C 359.747,134.713 360.414,135.38 361.5,135.5C 361.631,136.376 361.298,137.043 360.5,137.5C 355.311,135.816 349.978,135.149 344.5,135.5C 341.287,135.81 338.287,135.477 335.5,134.5C 323.383,132.73 311.05,131.73 298.5,131.5C 294.651,131.501 290.984,131.835 287.5,132.5C 286.5,132.5 285.5,132.5 284.5,132.5C 273.252,132.821 262.085,132.487 251,131.5C 249.513,132.253 249.346,133.086 250.5,134C 242.919,134.05 235.585,135.383 228.5,138C 227.619,138.708 226.953,139.542 226.5,140.5C 222.224,141.31 217.891,141.977 213.5,142.5C 211.5,142.5 209.5,142.5 207.5,142.5C 207.33,141.178 207.663,140.011 208.5,139C 207.253,136.984 205.919,135.151 204.5,133.5C 204.5,132.833 204.167,132.5 203.5,132.5C 202.167,131.5 200.833,130.5 199.5,129.5C 198.28,127.718 197.614,125.718 197.5,123.5C 209.501,121.366 221.501,119.366 233.5,117.5C 235.167,117.5 236.833,117.5 238.5,117.5C 249.262,114.733 260.262,113.066 271.5,112.5 Z"/></g>
<g><path style="opacity:0.714" fill="#7c769b" d="M 87.5,110.5 C 87.8417,109.662 88.5084,109.328 89.5,109.5C 89.5,109.833 89.5,110.167 89.5,110.5C 89.9175,111.222 90.5842,111.722 91.5,112C 90.2881,113.107 90.6214,113.607 92.5,113.5C 91.5,114.167 90.5,114.833 89.5,115.5C 88.448,115.649 87.448,115.483 86.5,115C 87.5981,114.23 87.5981,113.397 86.5,112.5C 88.4241,112.289 88.7574,111.623 87.5,110.5 Z"/></g>
<g><path style="opacity:1" fill="#e64b47" d="M 271.5,111.5 C 271.5,111.833 271.5,112.167 271.5,112.5C 260.262,113.066 249.262,114.733 238.5,117.5C 240.779,116.349 243.112,115.349 245.5,114.5C 253.972,113.029 262.639,112.029 271.5,111.5 Z"/></g>
<g><path style="opacity:1" fill="#e34545" d="M 322.5,113.5 C 322.5,113.167 322.5,112.833 322.5,112.5C 328.21,112.471 333.877,112.971 339.5,114C 340.416,114.278 341.082,114.778 341.5,115.5C 335.167,114.833 328.833,114.167 322.5,113.5 Z"/></g>
<g><path style="opacity:0.075" fill="#a3a1b2" d="M 79.5,112.5 C 81.1172,113.038 82.7839,113.371 84.5,113.5C 86.0544,114.895 85.721,115.561 83.5,115.5C 81.5828,115.246 80.2495,114.246 79.5,112.5 Z"/></g>
<g><path style="opacity:0.11" fill="#a5a2bc" d="M 89.5,115.5 C 90.8333,115.5 92.1667,115.5 93.5,115.5C 93.1898,117.144 92.1898,118.144 90.5,118.5C 89.8902,117.609 89.5569,116.609 89.5,115.5 Z"/></g>
<g><path style="opacity:1" fill="#f3a5a4" d="M 245.5,114.5 C 243.112,115.349 240.779,116.349 238.5,117.5C 236.833,117.5 235.167,117.5 233.5,117.5C 237.018,115.034 241.018,114.034 245.5,114.5 Z"/></g>
<g><path style="opacity:1" fill="#1e0891" d="M 108.5,63.5 C 108.64,65.1238 107.973,66.2904 106.5,67C 108.664,67.9143 110.664,69.081 112.5,70.5C 111.167,71.5 111.167,72.5 112.5,73.5C 107.461,77.3447 102.461,81.178 97.5,85C 99.725,85.8759 101.725,87.0426 103.5,88.5C 104.072,91.0242 103.406,93.3575 101.5,95.5C 101.556,96.737 102.056,97.737 103,98.5C 103.736,95.68 105.402,93.68 108,92.5C 112.102,93.8496 116.268,95.0163 120.5,96C 118.671,96.2735 117.171,97.1068 116,98.5C 114.455,97.1787 113.289,97.5121 112.5,99.5C 115.428,100.484 118.428,100.817 121.5,100.5C 119.622,101.38 116.955,101.88 113.5,102C 112.833,102.333 112.167,102.667 111.5,103C 113.932,104.087 113.598,104.587 110.5,104.5C 110.265,103.903 109.765,103.57 109,103.5C 106.448,103.73 105.615,104.73 106.5,106.5C 114.669,109.311 122.669,112.644 130.5,116.5C 130.768,118.099 130.434,119.432 129.5,120.5C 128.213,121.768 127.213,121.435 126.5,119.5C 123.912,122.971 120.578,124.804 116.5,125C 119.353,123.47 120.02,121.303 118.5,118.5C 116.344,116.991 114.01,115.991 111.5,115.5C 112.801,117.672 113.801,120.005 114.5,122.5C 113.127,122.343 111.793,122.51 110.5,123C 111.654,123.914 111.487,124.747 110,125.5C 107.646,125.108 105.146,125.108 102.5,125.5C 102.918,124.778 103.584,124.278 104.5,124C 104,123.833 103.5,123.667 103,123.5C 100.23,124.348 97.3971,124.681 94.5,124.5C 94.7409,127.034 93.7409,128.7 91.5,129.5C 90.0937,129.973 89.427,130.973 89.5,132.5C 87.4268,134.58 85.0934,136.246 82.5,137.5C 81.609,136.89 80.609,136.557 79.5,136.5C 78.3395,136.563 77.0062,136.23 75.5,135.5C 75.9528,134.542 76.6195,133.708 77.5,133C 76.5842,132.722 75.9175,132.222 75.5,131.5C 75.8333,131.5 76.1667,131.5 76.5,131.5C 77.7562,131.539 78.7562,131.039 79.5,130C 77.9443,129.28 76.9443,128.113 76.5,126.5C 78.2303,125.974 79.5637,124.974 80.5,123.5C 83.8333,121.833 87.1667,120.167 90.5,118.5C 92.1898,118.144 93.1898,117.144 93.5,115.5C 96.1864,114.012 95.8531,113.345 92.5,113.5C 90.6214,113.607 90.2881,113.107 91.5,112C 90.5842,111.722 89.9175,111.222 89.5,110.5C 91.6859,110.489 92.5192,109.489 92,107.5C 91.2917,108.381 90.4584,109.047 89.5,109.5C 88.5084,109.328 87.8417,109.662 87.5,110.5C 87.1667,111.167 86.8333,111.833 86.5,112.5C 85.8333,112.833 85.1667,113.167 84.5,113.5C 82.7839,113.371 81.1172,113.038 79.5,112.5C 78.1716,111.493 77.1716,110.16 76.5,108.5C 77.376,107.749 78.376,107.249 79.5,107C 77.8934,105.951 77.2267,104.451 77.5,102.5C 80.5712,100.102 83.9046,98.1023 87.5,96.5C 88.1667,96.1667 88.8333,95.8333 89.5,95.5C 94.4635,93.6062 94.4635,92.6062 89.5,92.5C 90.4054,91.0357 90.4054,89.7024 89.5,88.5C 91.3588,88.5391 92.6921,87.7058 93.5,86C 91.8602,85.6522 90.5268,86.1522 89.5,87.5C 88.8333,87.5 88.5,87.8333 88.5,88.5C 87.078,89.925 85.4113,90.925 83.5,91.5C 80.4072,90.7862 77.7405,89.2862 75.5,87C 76.6226,85.9563 77.9559,85.2896 79.5,85C 78.3094,84.3021 77.3094,83.4687 76.5,82.5C 75.2617,82.19 75.2617,81.69 76.5,81C 82.739,77.39 88.739,73.5567 94.5,69.5C 99.2184,67.4702 103.885,65.4702 108.5,63.5 Z M 87.5,110.5 C 88.7574,111.623 88.4241,112.289 86.5,112.5C 86.8333,111.833 87.1667,111.167 87.5,110.5 Z M 89.5,110.5 C 89.5,110.167 89.5,109.833 89.5,109.5C 90.4584,109.047 91.2917,108.381 92,107.5C 92.5192,109.489 91.6859,110.489 89.5,110.5 Z"/></g>
<g><path style="opacity:0.173" fill="#9385e2" d="M 100.5,109.5 C 101.756,109.461 102.756,109.961 103.5,111C 101.833,113 100.167,113 98.5,111C 99.4158,110.722 100.082,110.222 100.5,109.5 Z"/></g>
<g><path style="opacity:0.016" fill="#b1a8e8" d="M 89.5,88.5 C 89.5,88.1667 89.5,87.8333 89.5,87.5C 90.5268,86.1522 91.8602,85.6522 93.5,86C 92.6921,87.7058 91.3588,88.5391 89.5,88.5 Z"/></g>
<g><path style="opacity:0.212" fill="#b8b8b8" d="M 477.5,118.5 C 477.5,118.833 477.5,119.167 477.5,119.5C 476.244,119.539 475.244,119.039 474.5,118C 475.749,117.26 476.749,117.427 477.5,118.5 Z"/></g>
<g><path style="opacity:1" fill="#190196" d="M 172.5,40.5 C 175.609,40.2641 178.609,40.5975 181.5,41.5C 181.66,43.153 182.326,44.4863 183.5,45.5C 183.497,49.524 183.164,53.524 182.5,57.5C 182.069,60.3932 183.069,62.3932 185.5,63.5C 185.334,69.1764 185.501,74.8431 186,80.5C 186.708,81.3805 187.542,82.0472 188.5,82.5C 189.199,85.3103 190.199,87.977 191.5,90.5C 191.95,94.8002 192.95,98.9668 194.5,103C 194.561,104.711 193.894,106.044 192.5,107C 194.194,108.728 195.361,108.228 196,105.5C 196.169,113.188 196.669,120.855 197.5,128.5C 198.183,128.863 198.85,129.196 199.5,129.5C 200.833,130.5 202.167,131.5 203.5,132.5C 203.592,135.4 202.259,137.067 199.5,137.5C 198.5,137.5 197.5,137.5 196.5,137.5C 194.139,137.674 191.806,138.007 189.5,138.5C 176.499,139.975 163.832,142.975 151.5,147.5C 151.137,148.183 150.804,148.85 150.5,149.5C 149.833,149.5 149.167,149.5 148.5,149.5C 141.426,151.202 134.426,153.202 127.5,155.5C 126.5,155.333 125.5,155.167 124.5,155C 123.288,149.44 121.288,149.106 118.5,154C 120.398,154.9 122.064,156.066 123.5,157.5C 121.994,158.747 120.494,158.747 119,157.5C 118.215,159.249 117.382,160.916 116.5,162.5C 114.143,162.337 111.81,162.503 109.5,163C 100.914,165.715 92.2469,168.215 83.5,170.5C 81.9704,170.36 80.9704,169.693 80.5,168.5C 83.8785,168.147 86.8785,166.813 89.5,164.5C 90.4419,164.608 91.2753,164.941 92,165.5C 93.5147,160.374 97.0147,157.707 102.5,157.5C 103.614,156.277 103.781,154.944 103,153.5C 102.282,154.451 101.449,154.617 100.5,154C 102.394,152.921 102.727,151.587 101.5,150C 103.032,149.3 104.032,148.134 104.5,146.5C 107.876,146.142 110.542,144.642 112.5,142C 110.384,142.282 108.217,142.782 106,143.5C 104.634,143.294 103.301,142.96 102,142.5C 101.747,143.535 100.914,144.535 99.5,145.5C 97.36,144.894 95.1934,145.227 93,146.5C 92.6155,144.803 92.7822,143.137 93.5,141.5C 95.913,140.32 96.913,138.32 96.5,135.5C 98.924,135.808 101.257,135.474 103.5,134.5C 100.662,133.644 97.6622,133.31 94.5,133.5C 95.1862,128.814 97.8529,126.147 102.5,125.5C 105.146,125.108 107.646,125.108 110,125.5C 111.487,124.747 111.654,123.914 110.5,123C 111.793,122.51 113.127,122.343 114.5,122.5C 113.801,120.005 112.801,117.672 111.5,115.5C 114.01,115.991 116.344,116.991 118.5,118.5C 120.02,121.303 119.353,123.47 116.5,125C 120.578,124.804 123.912,122.971 126.5,119.5C 127.213,121.435 128.213,121.768 129.5,120.5C 129.736,128.542 129.403,136.542 128.5,144.5C 131.564,144.072 134.564,143.406 137.5,142.5C 137.5,141.167 137.5,139.833 137.5,138.5C 137.5,138.167 137.5,137.833 137.5,137.5C 139.999,135.174 142.499,132.841 145,130.5C 145.893,131.711 146.726,131.711 147.5,130.5C 147.92,128.674 147.92,126.674 147.5,124.5C 148.5,124.5 149.5,124.5 150.5,124.5C 150.5,125.833 150.5,127.167 150.5,128.5C 154.167,128.5 157.833,128.5 161.5,128.5C 161.5,129.5 161.5,130.5 161.5,131.5C 166.284,131.57 170.951,132.237 175.5,133.5C 174.614,131.278 174.614,129.112 175.5,127C 174.089,124.022 173.089,120.855 172.5,117.5C 170.716,114.348 168.216,113.348 165,114.5C 163.206,112.536 163.706,111.036 166.5,110C 166.034,108.701 166.034,107.201 166.5,105.5C 170.06,98.2174 174.726,91.7174 180.5,86C 171.378,89.1363 161.878,91.303 152,92.5C 148.011,89.8442 144.678,86.5109 142,82.5C 140.972,77.4436 138.639,73.1102 135,69.5C 134.292,79.1592 133.792,88.8259 133.5,98.5C 129.21,98.1977 125.21,98.8643 121.5,100.5C 118.428,100.817 115.428,100.484 112.5,99.5C 113.289,97.5121 114.455,97.1787 116,98.5C 117.171,97.1068 118.671,96.2735 120.5,96C 116.268,95.0163 112.102,93.8496 108,92.5C 105.402,93.68 103.736,95.68 103,98.5C 102.056,97.737 101.556,96.737 101.5,95.5C 103.406,93.3575 104.072,91.0242 103.5,88.5C 101.725,87.0426 99.725,85.8759 97.5,85C 102.461,81.178 107.461,77.3447 112.5,73.5C 111.167,72.5 111.167,71.5 112.5,70.5C 110.664,69.081 108.664,67.9143 106.5,67C 107.973,66.2904 108.64,65.1238 108.5,63.5C 113.357,63.1634 117.857,61.8301 122,59.5C 123.956,59.7845 126.123,59.7845 128.5,59.5C 128.5,58.5 128.5,57.5 128.5,56.5C 130.619,56.5323 131.952,55.5323 132.5,53.5C 132.833,53.5 133.167,53.5 133.5,53.5C 139.987,52.2503 145.987,49.917 151.5,46.5C 155.534,46.4835 159.201,45.4835 162.5,43.5C 166.162,43.2766 169.495,42.2766 172.5,40.5 Z"/></g>
<g><path style="opacity:1" fill="#db231d" d="M 360.5,119.5 C 365.258,120.531 369.925,121.698 374.5,123C 372.5,123.667 370.5,124.333 368.5,125C 367.915,126.302 367.249,127.469 366.5,128.5C 365.79,125.14 367.124,123.307 370.5,123C 367.5,122.667 364.5,122.333 361.5,122C 361.833,121.667 362.167,121.333 362.5,121C 361.584,120.722 360.918,120.222 360.5,119.5 Z"/></g>
<g><path style="opacity:0.004" fill="#fefffe" d="M 80.5,123.5 C 79.8333,122.167 79.8333,122.167 80.5,123.5 Z"/></g>
<g><path style="opacity:0.102" fill="#a9a9a9" d="M 507.5,115.5 C 511.964,116.298 514.297,118.964 514.5,123.5C 509.958,123.556 505.625,123.056 501.5,122C 499.505,124.8 498.505,127.967 498.5,131.5C 499.873,131.343 501.207,131.51 502.5,132C 502.167,132.333 501.833,132.667 501.5,133C 502.833,134.333 504.167,135.667 505.5,137C 504.944,137.383 504.611,137.883 504.5,138.5C 503.508,138.672 502.842,138.338 502.5,137.5C 502.167,136.167 501.833,136.167 501.5,137.5C 500.5,136.833 499.5,136.167 498.5,135.5C 497.833,135.5 497.5,135.167 497.5,134.5C 497.5,133.5 497.5,132.5 497.5,131.5C 494.941,131.198 492.607,131.532 490.5,132.5C 489.167,132.5 488.5,131.833 488.5,130.5C 490.176,129.817 490.843,128.483 490.5,126.5C 491.873,126.657 493.207,126.49 494.5,126C 490.39,124.485 486.39,122.985 482.5,121.5C 482.443,120.391 482.11,119.391 481.5,118.5C 484.5,119.167 487.5,119.833 490.5,120.5C 490.5,121.5 490.5,122.5 490.5,123.5C 492.924,123.808 495.257,123.474 497.5,122.5C 495.827,120.914 493.827,120.247 491.5,120.5C 490.375,119 489.041,117.667 487.5,116.5C 490.238,116.851 492.904,117.518 495.5,118.5C 496.293,118.069 497.127,117.735 498,117.5C 502.18,119.45 506.514,120.783 511,121.5C 511.5,121 512,120.5 512.5,120C 511.051,118.883 509.384,118.216 507.5,118C 508.167,117.667 508.833,117.333 509.5,117C 508.584,116.722 507.918,116.222 507.5,115.5 Z M 490.5,120.5 C 490.833,120.5 491.167,120.5 491.5,120.5C 493.827,120.247 495.827,120.914 497.5,122.5C 495.257,123.474 492.924,123.808 490.5,123.5C 490.5,122.5 490.5,121.5 490.5,120.5 Z"/></g>
<g><path style="opacity:0.171" fill="#9e9e9e" d="M 484.5,125.5 C 482.952,125.821 482.285,126.821 482.5,128.5C 478.699,127.799 475.032,126.632 471.5,125C 473.035,124.504 474.535,124.67 476,125.5C 476.95,124.978 477.784,124.311 478.5,123.5C 480.657,124.05 482.657,124.717 484.5,125.5 Z"/></g>
<g><path style="opacity:1" fill="#1f0c89" d="M 166.5,105.5 C 166.034,107.201 166.034,108.701 166.5,110C 163.706,111.036 163.206,112.536 165,114.5C 168.216,113.348 170.716,114.348 172.5,117.5C 173.089,120.855 174.089,124.022 175.5,127C 174.614,129.112 174.614,131.278 175.5,133.5C 170.951,132.237 166.284,131.57 161.5,131.5C 161.5,130.5 161.5,129.5 161.5,128.5C 157.833,128.5 154.167,128.5 150.5,128.5C 150.5,127.167 150.5,125.833 150.5,124.5C 149.5,124.5 148.5,124.5 147.5,124.5C 147.92,126.674 147.92,128.674 147.5,130.5C 146.726,131.711 145.893,131.711 145,130.5C 142.499,132.841 139.999,135.174 137.5,137.5C 137.062,137.565 136.728,137.399 136.5,137C 139.226,133.698 142.059,130.532 145,127.5C 145.242,124.928 146.575,123.261 149,122.5C 157.466,126.166 165.966,129.333 174.5,132C 168.996,124.658 163.996,116.991 159.5,109C 160.732,105.61 161.566,105.777 162,109.5C 163.371,107.959 164.871,106.625 166.5,105.5 Z"/></g>
<g><path style="opacity:0.329" fill="#9690c6" d="M 76.5,126.5 C 76.9443,128.113 77.9443,129.28 79.5,130C 78.7562,131.039 77.7562,131.539 76.5,131.5C 75.9035,129.602 75.9035,127.935 76.5,126.5 Z"/></g>
<g><path style="opacity:1" fill="#e4201b" d="M 284.5,132.5 C 280.03,133.486 275.363,133.819 270.5,133.5C 262.189,134.37 253.856,135.037 245.5,135.5C 240.316,136.109 235.649,137.776 231.5,140.5C 229.833,140.5 228.167,140.5 226.5,140.5C 226.953,139.542 227.619,138.708 228.5,138C 235.585,135.383 242.919,134.05 250.5,134C 249.346,133.086 249.513,132.253 251,131.5C 262.085,132.487 273.252,132.821 284.5,132.5 Z"/></g>
<g><path style="opacity:1" fill="#d3201b" d="M 287.5,132.5 C 290.984,131.835 294.651,131.501 298.5,131.5C 311.05,131.73 323.383,132.73 335.5,134.5C 334.5,134.5 333.5,134.5 332.5,134.5C 317.526,133.302 302.526,132.635 287.5,132.5 Z"/></g>
<g><path style="opacity:0.624" fill="#807aa3" d="M 75.5,131.5 C 75.9175,132.222 76.5842,132.722 77.5,133C 76.6195,133.708 75.9528,134.542 75.5,135.5C 74.4547,135.313 73.788,134.146 73.5,132C 73.6834,130.316 74.3501,130.15 75.5,131.5 Z"/></g>
<g><path style="opacity:0.565" fill="#7970ab" d="M 91.5,129.5 C 91.5,130.167 91.8333,130.5 92.5,130.5C 92.5,130.833 92.5,131.167 92.5,131.5C 91.1667,131.833 91.1667,132.167 92.5,132.5C 91.7515,134.332 90.7515,135.999 89.5,137.5C 88.7611,137.631 88.0944,137.464 87.5,137C 88.2567,135.488 89.2567,134.154 90.5,133C 90.2716,132.601 89.9382,132.435 89.5,132.5C 89.427,130.973 90.0937,129.973 91.5,129.5 Z"/></g>
<g><path style="opacity:1" fill="#f9c6c2" d="M 270.5,133.5 C 270.389,134.117 270.056,134.617 269.5,135C 259.166,136.567 248.833,138.067 238.5,139.5C 241.055,138.539 243.388,137.206 245.5,135.5C 253.856,135.037 262.189,134.37 270.5,133.5 Z"/></g>
<g><path style="opacity:1" fill="#fcfafa" d="M 284.5,132.5 C 285.5,132.5 286.5,132.5 287.5,132.5C 302.526,132.635 317.526,133.302 332.5,134.5C 332.082,135.222 331.416,135.722 330.5,136C 336.888,136.59 343.222,137.423 349.5,138.5C 355.748,139.025 361.748,140.358 367.5,142.5C 369.74,143.264 372.073,144.098 374.5,145C 372.608,145.973 370.608,146.64 368.5,147C 366.5,150.333 363.833,153 360.5,155C 373.482,157.03 386.482,158.864 399.5,160.5C 402.589,161.785 405.922,162.451 409.5,162.5C 421.925,165.786 434.591,168.453 447.5,170.5C 453.526,172.924 459.859,174.591 466.5,175.5C 469.254,176.946 472.254,177.946 475.5,178.5C 475.5,179.833 475.5,181.167 475.5,182.5C 474.761,182.369 474.094,182.536 473.5,183C 475.635,184.381 477.968,185.381 480.5,186C 481.337,187.011 481.67,188.178 481.5,189.5C 479.549,189.227 478.049,189.893 477,191.5C 475.612,190.446 474.112,190.28 472.5,191C 474.677,192.202 477.011,192.702 479.5,192.5C 480.167,192.833 480.833,193.167 481.5,193.5C 482.263,194.268 483.263,194.768 484.5,195C 484.167,195.333 483.833,195.667 483.5,196C 488.734,198.053 494.067,199.886 499.5,201.5C 504.216,202.25 508.216,204.25 511.5,207.5C 510.848,208.725 509.681,209.392 508,209.5C 501.232,206.985 494.399,205.652 487.5,205.5C 445.815,193.463 403.481,184.296 360.5,178C 364.526,176.641 367.193,173.974 368.5,170C 370.715,169.83 372.715,169.163 374.5,168C 366.412,166.143 358.412,164.309 350.5,162.5C 350.918,161.778 351.584,161.278 352.5,161C 350.134,160.56 347.801,160.06 345.5,159.5C 342.43,159.632 339.43,159.299 336.5,158.5C 308.163,155.886 279.83,155.886 251.5,158.5C 248.518,158.963 245.518,159.296 242.5,159.5C 240.073,159.523 237.74,160.023 235.5,161C 235.833,161.333 236.167,161.667 236.5,162C 234.942,162.21 233.609,162.71 232.5,163.5C 182.136,169.182 134.803,183.849 90.5,207.5C 91.3414,205.621 91.6747,203.621 91.5,201.5C 91.5,200.833 91.1667,200.5 90.5,200.5C 90.5,200.167 90.5,199.833 90.5,199.5C 93.7143,198.206 93.881,196.872 91,195.5C 89.0158,197.763 86.8491,199.93 84.5,202C 83.2559,202.456 82.4226,201.956 82,200.5C 81.3292,201.252 80.4959,201.586 79.5,201.5C 76.8858,201.723 75.2191,200.556 74.5,198C 76.5254,196.806 76.8587,195.306 75.5,193.5C 77.3324,190.328 79.9991,188.328 83.5,187.5C 85.9976,186.088 88.6642,184.921 91.5,184C 92.7101,182.961 93.7101,181.794 94.5,180.5C 100.472,178.564 106.138,175.897 111.5,172.5C 144.39,158.448 178.39,148.448 213.5,142.5C 217.891,141.977 222.224,141.31 226.5,140.5C 228.167,140.5 229.833,140.5 231.5,140.5C 233.764,139.781 236.097,139.448 238.5,139.5C 248.833,138.067 259.166,136.567 269.5,135C 270.056,134.617 270.389,134.117 270.5,133.5C 275.363,133.819 280.03,133.486 284.5,132.5 Z"/></g>
<g><path style="opacity:1" fill="#2d1a88" d="M 130.5,116.5 C 130.679,124.874 130.679,133.374 130.5,142C 130.667,142.5 130.833,143 131,143.5C 133.287,141.946 135.454,140.279 137.5,138.5C 137.5,139.833 137.5,141.167 137.5,142.5C 134.564,143.406 131.564,144.072 128.5,144.5C 129.403,136.542 129.736,128.542 129.5,120.5C 130.434,119.432 130.768,118.099 130.5,116.5 Z"/></g>
<g><path style="opacity:1" fill="#f6acb0" d="M 332.5,134.5 C 333.5,134.5 334.5,134.5 335.5,134.5C 338.287,135.477 341.287,135.81 344.5,135.5C 346.631,136.314 348.964,136.814 351.5,137C 350.584,137.278 349.918,137.778 349.5,138.5C 343.222,137.423 336.888,136.59 330.5,136C 331.416,135.722 332.082,135.222 332.5,134.5 Z"/></g>
<g><path style="opacity:1" fill="#a20845" d="M 203.5,132.5 C 204.167,132.5 204.5,132.833 204.5,133.5C 204.616,136.91 202.95,138.244 199.5,137.5C 202.259,137.067 203.592,135.4 203.5,132.5 Z"/></g>
<g><path style="opacity:1" fill="#f4666a" d="M 245.5,135.5 C 243.388,137.206 241.055,138.539 238.5,139.5C 236.097,139.448 233.764,139.781 231.5,140.5C 235.649,137.776 240.316,136.109 245.5,135.5 Z"/></g>
<g><path style="opacity:1" fill="#fa0302" d="M 361.5,135.5 C 362.097,134.861 362.93,134.528 364,134.5C 375.19,137.564 386.69,139.231 398.5,139.5C 414.741,141.806 430.741,145.139 446.5,149.5C 455.018,152.337 463.685,155.004 472.5,157.5C 471.833,159.833 471.167,162.167 470.5,164.5C 469.5,165.167 468.5,165.833 467.5,166.5C 471.596,168.266 472.262,170.766 469.5,174C 465.698,174.084 462.032,173.251 458.5,171.5C 459.894,170.313 459.727,169.646 458,169.5C 454.559,170.382 451.059,170.716 447.5,170.5C 441.851,169.049 436.185,167.216 430.5,165C 423.53,163.839 416.53,163.005 409.5,162.5C 405.922,162.451 402.589,161.785 399.5,160.5C 391.623,158.778 383.623,156.778 375.5,154.5C 375.5,152.833 375.5,151.167 375.5,149.5C 382.136,148.978 382.136,148.145 375.5,147C 376.833,145.667 376.833,144.333 375.5,143C 372.854,142.503 370.187,142.336 367.5,142.5C 365.523,140.186 363.523,137.853 361.5,135.5 Z"/></g>
<g><path style="opacity:0.118" fill="#a9a9b9" d="M 79.5,136.5 C 80.609,136.557 81.609,136.89 82.5,137.5C 81.221,138.715 80.221,138.382 79.5,136.5 Z"/></g>
<g><path style="opacity:1" fill="#db1a17" d="M 366.5,128.5 C 364.684,130.137 362.684,131.637 360.5,133C 373.397,134.672 386.064,136.838 398.5,139.5C 386.69,139.231 375.19,137.564 364,134.5C 362.93,134.528 362.097,134.861 361.5,135.5C 360.414,135.38 359.747,134.713 359.5,133.5C 359.899,131.803 360.399,130.137 361,128.5C 362.707,129.138 364.54,129.138 366.5,128.5 Z"/></g>
<g><path style="opacity:1" fill="#362090" d="M 102.5,125.5 C 97.8529,126.147 95.1862,128.814 94.5,133.5C 97.6622,133.31 100.662,133.644 103.5,134.5C 101.257,135.474 98.924,135.808 96.5,135.5C 96.913,138.32 95.913,140.32 93.5,141.5C 90.3028,141.762 87.3028,143.262 84.5,146C 83.2068,146.49 81.8734,146.657 80.5,146.5C 82.4844,143.836 85.1511,142.169 88.5,141.5C 89.1667,141.5 89.5,141.167 89.5,140.5C 93.3615,139.459 93.3615,138.459 89.5,137.5C 90.7515,135.999 91.7515,134.332 92.5,132.5C 92.5,132.167 92.5,131.833 92.5,131.5C 93.8333,131.167 93.8333,130.833 92.5,130.5C 91.8333,130.5 91.5,130.167 91.5,129.5C 93.7409,128.7 94.7409,127.034 94.5,124.5C 97.3971,124.681 100.23,124.348 103,123.5C 103.5,123.667 104,123.833 104.5,124C 103.584,124.278 102.918,124.778 102.5,125.5 Z"/></g>
<g><path style="opacity:0.031" fill="#bebebe" d="M 83.5,138.5 C 84.525,138.897 84.6917,139.563 84,140.5C 83.5357,139.906 83.369,139.239 83.5,138.5 Z"/></g>
<g><path style="opacity:0.035" fill="#a7a4a1" d="M 89.5,140.5 C 89.5,141.167 89.1667,141.5 88.5,141.5C 88.0825,140.778 87.4158,140.278 86.5,140C 87.7494,139.26 88.7494,139.427 89.5,140.5 Z"/></g>
<g><path style="opacity:1" fill="#b10a3e" d="M 196.5,137.5 C 192.172,139.676 187.506,141.01 182.5,141.5C 184.508,139.917 186.841,138.917 189.5,138.5C 191.806,138.007 194.139,137.674 196.5,137.5 Z"/></g>
<g><path style="opacity:1" fill="#ed2720" d="M 344.5,135.5 C 349.978,135.149 355.311,135.816 360.5,137.5C 361.298,137.043 361.631,136.376 361.5,135.5C 363.523,137.853 365.523,140.186 367.5,142.5C 361.748,140.358 355.748,139.025 349.5,138.5C 349.918,137.778 350.584,137.278 351.5,137C 348.964,136.814 346.631,136.314 344.5,135.5 Z"/></g>
<g><path style="opacity:1" fill="#b90b3a" d="M 179.5,141.5 C 175.561,143.781 171.228,145.114 166.5,145.5C 170.452,143.618 174.786,142.284 179.5,141.5 Z"/></g>
<g><path style="opacity:1" fill="#48ff73" d="M 189.5,138.5 C 186.841,138.917 184.508,139.917 182.5,141.5C 181.5,141.5 180.5,141.5 179.5,141.5C 174.786,142.284 170.452,143.618 166.5,145.5C 161.624,146.218 156.958,147.551 152.5,149.5C 151.833,149.5 151.167,149.5 150.5,149.5C 150.804,148.85 151.137,148.183 151.5,147.5C 163.832,142.975 176.499,139.975 189.5,138.5 Z"/></g>
<g><path style="opacity:0.41" fill="#a7a7a7" d="M 491.5,140.5 C 494.303,141.928 497.303,142.595 500.5,142.5C 499.194,143.467 498.527,144.801 498.5,146.5C 496.5,146.833 494.5,147.167 492.5,147.5C 486.381,145.273 480.381,142.773 474.5,140C 478.621,140.353 482.788,140.853 487,141.5C 488.707,141.492 490.207,141.158 491.5,140.5 Z"/></g>
<g><path style="opacity:0.064" fill="#929292" d="M 505.5,143.5 C 506.959,143.433 508.292,143.766 509.5,144.5C 509.833,145.833 510.167,145.833 510.5,144.5C 511.289,144.217 511.956,143.717 512.5,143C 510.754,142.529 509.087,141.862 507.5,141C 508.056,140.617 508.389,140.117 508.5,139.5C 510.259,139.046 512.259,139.046 514.5,139.5C 515.094,145.723 512.427,147.723 506.5,145.5C 506.137,144.817 505.804,144.15 505.5,143.5 Z"/></g>
<g><path style="opacity:0.067" fill="#a0a1b1" d="M 77.5,147.5 C 76.5388,149.438 77.2054,150.938 79.5,152C 77.9751,153.009 76.3084,153.509 74.5,153.5C 74.5,151.5 74.5,149.5 74.5,147.5C 75.5,147.5 76.5,147.5 77.5,147.5 Z"/></g>
<g><path style="opacity:1" fill="#c70b3a" d="M 148.5,149.5 C 149.167,149.5 149.833,149.5 150.5,149.5C 151.167,149.5 151.833,149.5 152.5,149.5C 149.323,151.82 145.656,153.154 141.5,153.5C 143.833,152.167 146.167,150.833 148.5,149.5 Z"/></g>
<g><path style="opacity:1" fill="#eb1e17" d="M 367.5,142.5 C 370.187,142.336 372.854,142.503 375.5,143C 376.833,144.333 376.833,145.667 375.5,147C 382.136,148.145 382.136,148.978 375.5,149.5C 375.5,151.167 375.5,152.833 375.5,154.5C 383.623,156.778 391.623,158.778 399.5,160.5C 386.482,158.864 373.482,157.03 360.5,155C 363.833,153 366.5,150.333 368.5,147C 370.608,146.64 372.608,145.973 374.5,145C 372.073,144.098 369.74,143.264 367.5,142.5 Z"/></g>
<g><path style="opacity:1" fill="#240f91" d="M 93.5,141.5 C 92.7822,143.137 92.6155,144.803 93,146.5C 95.1934,145.227 97.36,144.894 99.5,145.5C 100.914,144.535 101.747,143.535 102,142.5C 103.301,142.96 104.634,143.294 106,143.5C 108.217,142.782 110.384,142.282 112.5,142C 110.542,144.642 107.876,146.142 104.5,146.5C 104.032,148.134 103.032,149.3 101.5,150C 102.727,151.587 102.394,152.921 100.5,154C 101.449,154.617 102.282,154.451 103,153.5C 103.781,154.944 103.614,156.277 102.5,157.5C 97.0147,157.707 93.5147,160.374 92,165.5C 91.2753,164.941 90.4419,164.608 89.5,164.5C 86.8785,166.813 83.8785,168.147 80.5,168.5C 82.6291,166.05 85.2957,164.383 88.5,163.5C 89.1667,163.5 89.5,163.167 89.5,162.5C 94.7398,159.816 94.7398,158.816 89.5,159.5C 90.1667,158.167 90.8333,156.833 91.5,155.5C 92.1667,155.5 92.5,155.167 92.5,154.5C 94.0544,153.105 93.721,152.439 91.5,152.5C 90.2867,152.747 89.62,153.414 89.5,154.5C 88.5,154.833 87.8333,155.5 87.5,156.5C 86.8333,156.5 86.5,156.833 86.5,157.5C 85.5,158.167 84.5,158.833 83.5,159.5C 82.8333,159.5 82.1667,159.5 81.5,159.5C 79.9048,157.839 78.2381,157.172 76.5,157.5C 76.4142,156.504 76.7476,155.671 77.5,155C 76.2625,154.768 75.2625,154.268 74.5,153.5C 76.3084,153.509 77.9751,153.009 79.5,152C 77.2054,150.938 76.5388,149.438 77.5,147.5C 78.391,146.89 79.391,146.557 80.5,146.5C 81.8734,146.657 83.2068,146.49 84.5,146C 87.3028,143.262 90.3028,141.762 93.5,141.5 Z"/></g>
<g><path style="opacity:0.098" fill="#9990cc" d="M 92.5,154.5 C 91.5,154.5 90.5,154.5 89.5,154.5C 89.62,153.414 90.2867,152.747 91.5,152.5C 93.721,152.439 94.0544,153.105 92.5,154.5 Z"/></g>
<g><path style="opacity:1" fill="#390081" d="M 148.5,149.5 C 146.167,150.833 143.833,152.167 141.5,153.5C 133.115,156.185 124.782,159.185 116.5,162.5C 117.382,160.916 118.215,159.249 119,157.5C 120.494,158.747 121.994,158.747 123.5,157.5C 122.064,156.066 120.398,154.9 118.5,154C 121.288,149.106 123.288,149.44 124.5,155C 125.5,155.167 126.5,155.333 127.5,155.5C 134.426,153.202 141.426,151.202 148.5,149.5 Z"/></g>
<g><path style="opacity:0.929" fill="#e8e5e4" d="M 492.5,148.5 C 489.707,148.746 486.707,148.913 483.5,149C 488.553,153.074 494.22,155.741 500.5,157C 505.083,159.771 509.749,162.271 514.5,164.5C 513.588,166.743 511.922,167.743 509.5,167.5C 506.199,166.448 502.866,165.448 499.5,164.5C 497.08,164.23 494.413,163.563 491.5,162.5C 484.338,159.225 477.005,156.558 469.5,154.5C 474.985,155.479 480.318,156.145 485.5,156.5C 486.672,156.081 487.672,155.415 488.5,154.5C 485.87,152.974 483.203,152.474 480.5,153C 480.833,152.667 481.167,152.333 481.5,152C 478.456,151.641 478.122,150.974 480.5,150C 478.212,149.178 475.878,148.511 473.5,148C 472.304,147.346 472.304,146.846 473.5,146.5C 475.482,147.97 477.148,147.636 478.5,145.5C 483.129,146.716 487.796,147.716 492.5,148.5 Z"/></g>
<g><path style="opacity:0.431" fill="#a9a3c4" d="M 74.5,153.5 C 75.2625,154.268 76.2625,154.768 77.5,155C 76.7476,155.671 76.4142,156.504 76.5,157.5C 72.2491,158.336 71.5824,157.003 74.5,153.5 Z"/></g>
<g><path style="opacity:1" fill="#040404" d="M 336.5,158.5 C 335.737,159.268 334.737,159.768 333.5,160C 336.88,160.339 340.213,160.839 343.5,161.5C 345.806,161.993 348.139,162.326 350.5,162.5C 358.412,164.309 366.412,166.143 374.5,168C 372.715,169.163 370.715,169.83 368.5,170C 367.193,173.974 364.526,176.641 360.5,178C 403.481,184.296 445.815,193.463 487.5,205.5C 488.483,206.85 489.816,207.85 491.5,208.5C 490.443,208.906 489.109,208.906 487.5,208.5C 486.167,208.5 484.833,208.5 483.5,208.5C 479.975,207.203 476.308,206.369 472.5,206C 475.363,207.787 478.363,209.287 481.5,210.5C 482.167,210.5 482.833,210.5 483.5,210.5C 487.564,211.885 490.897,213.552 493.5,215.5C 492.5,215.5 491.5,215.5 490.5,215.5C 489.292,214.766 487.959,214.433 486.5,214.5C 486.167,214.5 485.833,214.5 485.5,214.5C 484.609,213.89 483.609,213.557 482.5,213.5C 480.571,213.231 478.905,213.731 477.5,215C 478.244,216.039 479.244,216.539 480.5,216.5C 481.209,217.404 482.209,217.737 483.5,217.5C 483.389,218.117 483.056,218.617 482.5,219C 484.808,219.991 487.141,220.824 489.5,221.5C 490.833,221.833 492.167,222.167 493.5,222.5C 493.842,223.338 494.508,223.672 495.5,223.5C 495.833,223.5 496.167,223.5 496.5,223.5C 496.842,224.338 497.508,224.672 498.5,224.5C 498.833,224.5 499.167,224.5 499.5,224.5C 504.687,226.869 509.02,229.535 512.5,232.5C 511.833,232.5 511.5,232.833 511.5,233.5C 510.833,233.5 510.167,233.5 509.5,233.5C 505.278,232.705 501.111,231.372 497,229.5C 496.617,230.056 496.117,230.389 495.5,230.5C 467.424,221.146 438.757,213.646 409.5,208C 393.219,205.009 376.886,202.342 360.5,200C 364.526,198.641 367.193,195.974 368.5,192C 370.715,191.83 372.715,191.163 374.5,190C 369.393,188.683 364.393,187.183 359.5,185.5C 358.402,184.603 358.402,183.77 359.5,183C 355.809,182.58 352.142,182.08 348.5,181.5C 323.915,178.884 299.248,177.884 274.5,178.5C 267.415,178.784 260.415,179.451 253.5,180.5C 252.167,180.5 250.833,180.5 249.5,180.5C 246.904,181.265 244.237,181.599 241.5,181.5C 237.465,181.33 234.131,182.663 231.5,185.5C 184.157,190.895 139.157,204.061 96.5,225C 94.1873,225.662 91.854,226.162 89.5,226.5C 91.1376,225.295 91.4709,223.962 90.5,222.5C 91.8333,222.5 92.5,221.833 92.5,220.5C 91.391,220.557 90.391,220.89 89.5,221.5C 87.8089,222.864 86.1423,224.197 84.5,225.5C 82.8828,224.962 81.2161,224.629 79.5,224.5C 77.8008,224.66 76.1341,224.494 74.5,224C 75.6405,223.259 75.6405,222.425 74.5,221.5C 74.9569,220.702 75.6236,220.369 76.5,220.5C 77.4734,220.013 78.4734,219.513 79.5,219C 77.9443,218.28 76.9443,217.113 76.5,215.5C 78.8525,214.66 80.8525,213.326 82.5,211.5C 83.7095,211.068 84.7095,210.401 85.5,209.5C 87.153,209.34 88.4863,208.674 89.5,207.5C 89.8333,207.5 90.1667,207.5 90.5,207.5C 134.803,183.849 182.136,169.182 232.5,163.5C 235.237,163.599 237.904,163.265 240.5,162.5C 245.378,162.449 250.045,161.615 254.5,160C 253.263,159.768 252.263,159.268 251.5,158.5C 279.83,155.886 308.163,155.886 336.5,158.5 Z M 92.5,220.5 C 92.5,221.833 91.8333,222.5 90.5,222.5C 89.8333,222.5 89.5,222.167 89.5,221.5C 90.391,220.89 91.391,220.557 92.5,220.5 Z"/></g>
<g><path style="opacity:0.037" fill="#9c9ca8" d="M 89.5,154.5 C 89.8417,155.338 90.5084,155.672 91.5,155.5C 90.8333,156.833 90.1667,158.167 89.5,159.5C 89.5,160.5 89.5,161.5 89.5,162.5C 89.5,163.167 89.1667,163.5 88.5,163.5C 86.6309,162.835 84.6309,162.169 82.5,161.5C 82.1373,160.817 81.8039,160.15 81.5,159.5C 82.1667,159.5 82.8333,159.5 83.5,159.5C 83.369,160.239 83.5357,160.906 84,161.5C 85.4813,160.529 86.3146,159.196 86.5,157.5C 88.2239,157.539 88.5573,157.206 87.5,156.5C 87.8333,155.5 88.5,154.833 89.5,154.5 Z"/></g>
<g><path style="opacity:1" fill="#9b9b9b" d="M 242.5,159.5 C 242.611,160.117 242.944,160.617 243.5,161C 242.263,161.232 241.263,161.732 240.5,162.5C 237.904,163.265 235.237,163.599 232.5,163.5C 233.609,162.71 234.942,162.21 236.5,162C 236.167,161.667 235.833,161.333 235.5,161C 237.74,160.023 240.073,159.523 242.5,159.5 Z"/></g>
<g><path style="opacity:1" fill="#5d5d5d" d="M 336.5,158.5 C 339.43,159.299 342.43,159.632 345.5,159.5C 344.833,160.167 344.167,160.833 343.5,161.5C 340.213,160.839 336.88,160.339 333.5,160C 334.737,159.768 335.737,159.268 336.5,158.5 Z"/></g>
<g><path style="opacity:1" fill="#acacac" d="M 345.5,159.5 C 347.801,160.06 350.134,160.56 352.5,161C 351.584,161.278 350.918,161.778 350.5,162.5C 348.139,162.326 345.806,161.993 343.5,161.5C 344.167,160.833 344.833,160.167 345.5,159.5 Z"/></g>
<g><path style="opacity:1" fill="#ef0d0f" d="M 204.5,133.5 C 205.919,135.151 207.253,136.984 208.5,139C 207.663,140.011 207.33,141.178 207.5,142.5C 209.5,142.5 211.5,142.5 213.5,142.5C 178.39,148.448 144.39,158.448 111.5,172.5C 109.396,172.201 107.396,172.534 105.5,173.5C 101.734,175.918 97.7343,177.418 93.5,178C 94.2598,176.559 94.9264,175.059 95.5,173.5C 97.3316,172.943 98.6649,171.943 99.5,170.5C 100.833,169.5 102.167,168.5 103.5,167.5C 105.898,167.741 107.898,167.074 109.5,165.5C 111.824,164.344 114.157,163.344 116.5,162.5C 124.782,159.185 133.115,156.185 141.5,153.5C 145.656,153.154 149.323,151.82 152.5,149.5C 156.958,147.551 161.624,146.218 166.5,145.5C 171.228,145.114 175.561,143.781 179.5,141.5C 180.5,141.5 181.5,141.5 182.5,141.5C 187.506,141.01 192.172,139.676 196.5,137.5C 197.5,137.5 198.5,137.5 199.5,137.5C 202.95,138.244 204.616,136.91 204.5,133.5 Z"/></g>
<g><path style="opacity:1" fill="#474747" d="M 251.5,158.5 C 252.263,159.268 253.263,159.768 254.5,160C 250.045,161.615 245.378,162.449 240.5,162.5C 241.263,161.732 242.263,161.232 243.5,161C 242.944,160.617 242.611,160.117 242.5,159.5C 245.518,159.296 248.518,158.963 251.5,158.5 Z"/></g>
<g><path style="opacity:1" fill="#dd281f" d="M 409.5,162.5 C 416.53,163.005 423.53,163.839 430.5,165C 436.185,167.216 441.851,169.049 447.5,170.5C 434.591,168.453 421.925,165.786 409.5,162.5 Z"/></g>
<g><path style="opacity:0.157" fill="#bdabaa" d="M 479.5,162.5 C 480.167,162.5 480.833,162.5 481.5,162.5C 484.985,163.59 488.319,163.59 491.5,162.5C 494.413,163.563 497.08,164.23 499.5,164.5C 497.92,168.083 496.92,171.583 496.5,175C 495.092,175.315 493.759,174.982 492.5,174C 493.5,173.667 494.5,173.333 495.5,173C 493.743,171.25 491.743,170.084 489.5,169.5C 490.492,169.672 491.158,169.338 491.5,168.5C 492.583,168.539 493.583,168.873 494.5,169.5C 495.745,168.045 495.578,166.711 494,165.5C 493,166.833 492,166.833 491,165.5C 490.283,166.044 489.783,166.711 489.5,167.5C 487.421,167.029 485.421,166.363 483.5,165.5C 482.508,165.672 481.842,165.338 481.5,164.5C 480.508,164.672 479.842,164.338 479.5,163.5C 479.5,163.167 479.5,162.833 479.5,162.5 Z"/></g>
<g><path style="opacity:1" fill="#3a0577" d="M 116.5,162.5 C 114.157,163.344 111.824,164.344 109.5,165.5C 107.102,165.259 105.102,165.926 103.5,167.5C 97.7552,167.646 92.4219,168.979 87.5,171.5C 84.4467,171.111 81.78,171.777 79.5,173.5C 78.448,173.649 77.448,173.483 76.5,173C 76.6191,171.855 76.9524,170.688 77.5,169.5C 78.391,168.89 79.391,168.557 80.5,168.5C 80.9704,169.693 81.9704,170.36 83.5,170.5C 92.2469,168.215 100.914,165.715 109.5,163C 111.81,162.503 114.143,162.337 116.5,162.5 Z"/></g>
<g><path style="opacity:1" fill="#c3314d" d="M 109.5,165.5 C 107.898,167.074 105.898,167.741 103.5,167.5C 105.102,165.926 107.102,165.259 109.5,165.5 Z"/></g>
<g><path style="opacity:0.996" fill="#c13732" d="M 483.5,165.5 C 485.421,166.363 487.421,167.029 489.5,167.5C 490.167,167.833 490.833,168.167 491.5,168.5C 491.158,169.338 490.492,169.672 489.5,169.5C 488.833,169.5 488.167,169.5 487.5,169.5C 485.883,168.962 484.216,168.629 482.5,168.5C 480.708,168.366 479.042,168.699 477.5,169.5C 479.5,168.167 481.5,166.833 483.5,165.5 Z"/></g>
<g><path style="opacity:0.043" fill="#ba8a8d" d="M 482.5,168.5 C 484.216,168.629 485.883,168.962 487.5,169.5C 486.081,170.451 484.415,170.784 482.5,170.5C 482.5,169.833 482.5,169.167 482.5,168.5 Z"/></g>
<g><path style="opacity:1" fill="#b5305a" d="M 103.5,167.5 C 102.167,168.5 100.833,169.5 99.5,170.5C 95.5703,170.224 91.5703,170.557 87.5,171.5C 92.4219,168.979 97.7552,167.646 103.5,167.5 Z"/></g>
<g><path style="opacity:0.953" fill="#d15448" d="M 477.5,170.5 C 479.167,170.5 480.833,170.5 482.5,170.5C 488.615,174.897 495.281,178.563 502.5,181.5C 499.784,181.322 497.117,180.822 494.5,180C 489.001,176.351 483.335,173.184 477.5,170.5 Z"/></g>
<g><path style="opacity:0.11" fill="#d1b9c0" d="M 77.5,169.5 C 76.9524,170.688 76.6191,171.855 76.5,173C 77.448,173.483 78.448,173.649 79.5,173.5C 79.5,173.833 79.5,174.167 79.5,174.5C 77.6916,174.491 76.0249,174.991 74.5,176C 78.333,176.604 78.333,177.437 74.5,178.5C 72.6354,174.448 73.6354,171.448 77.5,169.5 Z"/></g>
<g><path style="opacity:1" fill="#dd2625" d="M 99.5,170.5 C 98.6649,171.943 97.3316,172.943 95.5,173.5C 94.9264,175.059 94.2598,176.559 93.5,178C 97.7343,177.418 101.734,175.918 105.5,173.5C 107.396,172.534 109.396,172.201 111.5,172.5C 106.138,175.897 100.472,178.564 94.5,180.5C 92.5853,180.784 90.9187,180.451 89.5,179.5C 91.2624,178.738 92.2624,177.404 92.5,175.5C 92.1667,174.167 91.8333,174.167 91.5,175.5C 90.8333,175.5 90.1667,175.5 89.5,175.5C 90.7108,173.437 89.8774,172.437 87,172.5C 84.5021,172.917 82.0021,173.251 79.5,173.5C 81.78,171.777 84.4467,171.111 87.5,171.5C 91.5703,170.557 95.5703,170.224 99.5,170.5 Z"/></g>
<g><path style="opacity:1" fill="#ef0c0b" d="M 89.5,175.5 C 88.1667,176.167 87.1667,177.167 86.5,178.5C 84.0971,178.448 81.7638,178.781 79.5,179.5C 79.5,177.833 79.5,176.167 79.5,174.5C 79.5,174.167 79.5,173.833 79.5,173.5C 82.0021,173.251 84.5021,172.917 87,172.5C 89.8774,172.437 90.7108,173.437 89.5,175.5 Z"/></g>
<g><path style="opacity:1" fill="#d93027" d="M 466.5,175.5 C 472.271,176.221 477.938,177.387 483.5,179C 484.381,179.708 485.047,180.542 485.5,181.5C 482.15,180.497 478.817,179.497 475.5,178.5C 472.254,177.946 469.254,176.946 466.5,175.5 Z"/></g>
<g><path style="opacity:1" fill="#cc3730" d="M 79.5,174.5 C 79.5,176.167 79.5,177.833 79.5,179.5C 77.5227,180.872 75.8561,180.538 74.5,178.5C 78.333,177.437 78.333,176.604 74.5,176C 76.0249,174.991 77.6916,174.491 79.5,174.5 Z"/></g>
<g><path style="opacity:0.039" fill="#d38e83" d="M 89.5,175.5 C 90.1667,175.5 90.8333,175.5 91.5,175.5C 91.8333,175.5 92.1667,175.5 92.5,175.5C 92.2624,177.404 91.2624,178.738 89.5,179.5C 88.791,178.596 87.791,178.263 86.5,178.5C 87.1667,177.167 88.1667,176.167 89.5,175.5 Z"/></g>
<g><path style="opacity:1" fill="#ee0f0d" d="M 446.5,149.5 C 454.195,151.039 461.862,152.706 469.5,154.5C 477.005,156.558 484.338,159.225 491.5,162.5C 488.319,163.59 484.985,163.59 481.5,162.5C 478.72,161.18 475.72,160.68 472.5,161C 474.217,162.559 476.217,163.392 478.5,163.5C 478.833,163.5 479.167,163.5 479.5,163.5C 479.842,164.338 480.508,164.672 481.5,164.5C 481.842,165.338 482.508,165.672 483.5,165.5C 481.5,166.833 479.5,168.167 477.5,169.5C 477.5,169.833 477.5,170.167 477.5,170.5C 483.335,173.184 489.001,176.351 494.5,180C 497.117,180.822 499.784,181.322 502.5,181.5C 503.681,183.067 505.347,183.901 507.5,184C 509.815,185.368 509.815,186.201 507.5,186.5C 500.255,185.719 493.255,184.052 486.5,181.5C 486.167,181.5 485.833,181.5 485.5,181.5C 485.047,180.542 484.381,179.708 483.5,179C 477.938,177.387 472.271,176.221 466.5,175.5C 459.859,174.591 453.526,172.924 447.5,170.5C 451.059,170.716 454.559,170.382 458,169.5C 459.727,169.646 459.894,170.313 458.5,171.5C 462.032,173.251 465.698,174.084 469.5,174C 472.262,170.766 471.596,168.266 467.5,166.5C 468.5,165.833 469.5,165.167 470.5,164.5C 471.167,162.167 471.833,159.833 472.5,157.5C 463.685,155.004 455.018,152.337 446.5,149.5 Z"/></g>
<g><path style="opacity:0.271" fill="#db6c64" d="M 481.5,162.5 C 480.833,162.5 480.167,162.5 479.5,162.5C 478.833,162.5 478.5,162.833 478.5,163.5C 476.217,163.392 474.217,162.559 472.5,161C 475.72,160.68 478.72,161.18 481.5,162.5 Z"/></g>
<g><path style="opacity:1" fill="#fbfafa" d="M 274.5,178.5 C 299.248,177.884 323.915,178.884 348.5,181.5C 348.082,182.222 347.416,182.722 346.5,183C 350.825,183.974 355.158,184.807 359.5,185.5C 364.393,187.183 369.393,188.683 374.5,190C 372.715,191.163 370.715,191.83 368.5,192C 367.193,195.974 364.526,198.641 360.5,200C 376.886,202.342 393.219,205.009 409.5,208C 438.757,213.646 467.424,221.146 495.5,230.5C 496.9,231.1 497.9,232.1 498.5,233.5C 495.788,233.263 493.288,233.263 491,233.5C 490.517,232.552 490.351,231.552 490.5,230.5C 487.881,230.768 485.381,230.435 483,229.5C 482.316,230.784 482.483,231.951 483.5,233C 486.599,233.387 489.266,234.554 491.5,236.5C 488.43,236.632 485.43,236.299 482.5,235.5C 481.833,235.5 481.167,235.5 480.5,235.5C 479.85,235.196 479.183,234.863 478.5,234.5C 477.646,235.522 476.646,236.355 475.5,237C 476.973,237.71 477.64,238.876 477.5,240.5C 484.738,241.691 491.738,243.691 498.5,246.5C 502.327,248.278 506.327,249.778 510.5,251C 514.558,254.149 513.891,255.649 508.5,255.5C 504.7,254.364 500.867,253.031 497,251.5C 496.275,252.059 495.442,252.392 494.5,252.5C 491.58,251.414 488.58,250.748 485.5,250.5C 480.328,248.585 474.995,247.251 469.5,246.5C 464.429,244.565 459.095,243.232 453.5,242.5C 442.117,239.096 430.45,236.429 418.5,234.5C 403.781,230.917 388.781,228.25 373.5,226.5C 369.665,225.539 365.665,224.705 361.5,224C 364.92,222.249 367.254,219.582 368.5,216C 370.715,215.83 372.715,215.163 374.5,214C 369.958,213.133 365.625,211.967 361.5,210.5C 361.64,208.876 360.973,207.71 359.5,207C 355.49,206.499 351.49,205.999 347.5,205.5C 338.219,204.173 328.885,203.507 319.5,203.5C 293.592,201.852 267.592,202.519 241.5,205.5C 237.525,205.486 234.192,206.819 231.5,209.5C 229.901,209.232 228.568,209.566 227.5,210.5C 209.734,212.187 192.401,215.521 175.5,220.5C 166.935,222.057 158.602,224.391 150.5,227.5C 139.028,230.875 128.028,235.208 117.5,240.5C 113.851,241.267 110.518,242.6 107.5,244.5C 103.162,246.501 98.8283,248.501 94.5,250.5C 93.4125,249 92.0792,247.667 90.5,246.5C 93.2277,240.373 92.561,240.039 88.5,245.5C 86.891,246.888 85.0577,247.888 83,248.5C 80.6813,247.129 78.1813,246.462 75.5,246.5C 75.67,245.178 75.3366,244.011 74.5,243C 77.0879,236.505 81.7546,232.005 88.5,229.5C 89.3857,228.675 89.719,227.675 89.5,226.5C 91.854,226.162 94.1873,225.662 96.5,225C 139.157,204.061 184.157,190.895 231.5,185.5C 234.518,185.296 237.518,184.963 240.5,184.5C 244.623,184.202 248.623,183.369 252.5,182C 251.263,181.768 250.263,181.268 249.5,180.5C 250.833,180.5 252.167,180.5 253.5,180.5C 260.665,181.986 267.665,181.319 274.5,178.5 Z"/></g>
<g><path style="opacity:0.035" fill="#a69090" d="M 503.5,179.5 C 504.251,178.427 505.251,178.26 506.5,179C 505.552,179.483 504.552,179.649 503.5,179.5 Z"/></g>
<g><path style="opacity:0.918" fill="#da6a65" d="M 86.5,178.5 C 85.0858,180.054 83.4192,181.388 81.5,182.5C 80.5748,181.643 79.9081,180.643 79.5,179.5C 81.7638,178.781 84.0971,178.448 86.5,178.5 Z"/></g>
<g><path style="opacity:1" fill="#c5c5c5" d="M 274.5,178.5 C 267.665,181.319 260.665,181.986 253.5,180.5C 260.415,179.451 267.415,178.784 274.5,178.5 Z"/></g>
<g><path style="opacity:1" fill="#a9a9a9" d="M 249.5,180.5 C 250.263,181.268 251.263,181.768 252.5,182C 248.623,183.369 244.623,184.202 240.5,184.5C 240.918,183.778 241.584,183.278 242.5,183C 241.944,182.617 241.611,182.117 241.5,181.5C 244.237,181.599 246.904,181.265 249.5,180.5 Z"/></g>
<g><path style="opacity:1" fill="#5e5e5e" d="M 241.5,181.5 C 241.611,182.117 241.944,182.617 242.5,183C 241.584,183.278 240.918,183.778 240.5,184.5C 237.518,184.963 234.518,185.296 231.5,185.5C 234.131,182.663 237.465,181.33 241.5,181.5 Z"/></g>
<g><path style="opacity:1" fill="#505050" d="M 348.5,181.5 C 352.142,182.08 355.809,182.58 359.5,183C 358.402,183.77 358.402,184.603 359.5,185.5C 355.158,184.807 350.825,183.974 346.5,183C 347.416,182.722 348.082,182.222 348.5,181.5 Z"/></g>
<g><path style="opacity:0.384" fill="#c8b6b7" d="M 89.5,179.5 C 90.9187,180.451 92.5853,180.784 94.5,180.5C 93.7101,181.794 92.7101,182.961 91.5,184C 88.6642,184.921 85.9976,186.088 83.5,187.5C 83.33,186.178 83.6634,185.011 84.5,184C 86.2556,183.798 87.9223,183.298 89.5,182.5C 89.0233,181.522 88.3567,180.689 87.5,180C 88.0944,179.536 88.7611,179.369 89.5,179.5 Z"/></g>
<g><path style="opacity:1" fill="#d0413a" d="M 486.5,181.5 C 493.255,184.052 500.255,185.719 507.5,186.5C 509.815,186.201 509.815,185.368 507.5,184C 505.347,183.901 503.681,183.067 502.5,181.5C 506.102,181.692 509.102,183.026 511.5,185.5C 511.179,187.048 510.179,187.715 508.5,187.5C 503.106,187.087 497.773,186.253 492.5,185C 489.975,184.576 487.975,183.41 486.5,181.5 Z"/></g>
<g><path style="opacity:0.561" fill="#ac6b6e" d="M 511.5,185.5 C 513.485,185.859 514.151,186.692 513.5,188C 511.613,188.78 509.946,188.613 508.5,187.5C 510.179,187.715 511.179,187.048 511.5,185.5 Z"/></g>
<g><path style="opacity:0.035" fill="#94a194" d="M 506.5,189.5 C 507.773,190.077 507.773,190.743 506.5,191.5C 505.537,191.03 505.537,190.363 506.5,189.5 Z"/></g>
<g><path style="opacity:0.224" fill="#c7c6c7" d="M 475.5,182.5 C 480.241,184.745 485.074,186.745 490,188.5C 490.689,187.643 491.522,186.977 492.5,186.5C 494.204,188.041 496.037,189.375 498,190.5C 500.812,187.759 502.978,188.092 504.5,191.5C 502.999,192.752 501.332,193.752 499.5,194.5C 498.286,196.859 498.286,199.192 499.5,201.5C 494.067,199.886 488.734,198.053 483.5,196C 483.833,195.667 484.167,195.333 484.5,195C 483.263,194.768 482.263,194.268 481.5,193.5C 482.404,192.791 482.737,191.791 482.5,190.5C 481.127,190.343 479.793,190.51 478.5,191C 479.056,191.383 479.389,191.883 479.5,192.5C 477.011,192.702 474.677,192.202 472.5,191C 474.112,190.28 475.612,190.446 477,191.5C 478.049,189.893 479.549,189.227 481.5,189.5C 481.67,188.178 481.337,187.011 480.5,186C 477.968,185.381 475.635,184.381 473.5,183C 474.094,182.536 474.761,182.369 475.5,182.5 Z M 491.5,190.5 C 493.505,191.039 495.505,191.705 497.5,192.5C 495.019,193.787 492.519,195.12 490,196.5C 488.513,195.845 487.347,194.845 486.5,193.5C 487.391,192.41 488.391,192.41 489.5,193.5C 490.425,192.643 491.092,191.643 491.5,190.5 Z"/></g>
<g><path style="opacity:0.361" fill="#c1c1c1" d="M 90.5,199.5 C 89.1667,199.833 89.1667,200.167 90.5,200.5C 91.1667,200.5 91.5,200.833 91.5,201.5C 88.7146,202.306 85.8813,202.972 83,203.5C 81.3189,203.392 80.1522,202.725 79.5,201.5C 80.4959,201.586 81.3292,201.252 82,200.5C 82.4226,201.956 83.2559,202.456 84.5,202C 86.8491,199.93 89.0158,197.763 91,195.5C 93.881,196.872 93.7143,198.206 90.5,199.5 Z"/></g>
<g><path style="opacity:1" fill="#d73e38" d="M 319.5,203.5 C 303.497,203.333 287.497,203.5 271.5,204C 260.97,204.338 250.637,205.838 240.5,208.5C 240.918,207.778 241.584,207.278 242.5,207C 241.944,206.617 241.611,206.117 241.5,205.5C 267.592,202.519 293.592,201.852 319.5,203.5 Z"/></g>
<g><path style="opacity:1" fill="#fb0202" d="M 319.5,203.5 C 328.431,204.64 337.431,205.973 346.5,207.5C 351.605,208.121 356.605,209.121 361.5,210.5C 365.625,211.967 369.958,213.133 374.5,214C 372.715,215.163 370.715,215.83 368.5,216C 367.254,219.582 364.92,222.249 361.5,224C 365.665,224.705 369.665,225.539 373.5,226.5C 373.611,227.117 373.944,227.617 374.5,228C 377.146,228.497 379.813,228.664 382.5,228.5C 382.5,229.5 382.5,230.5 382.5,231.5C 390.631,230.689 398.631,231.523 406.5,234C 410.486,234.499 414.486,234.666 418.5,234.5C 430.45,236.429 442.117,239.096 453.5,242.5C 458.481,244.745 463.814,246.079 469.5,246.5C 471.932,247.958 474.599,249.125 477.5,250C 475.942,250.21 474.609,250.71 473.5,251.5C 473.062,251.435 472.728,251.601 472.5,252C 474.674,254.352 477.341,255.519 480.5,255.5C 480.833,255.5 481.167,255.5 481.5,255.5C 481.5,256.167 481.833,256.5 482.5,256.5C 482.611,257.117 482.944,257.617 483.5,258C 479.814,258.559 476.147,259.226 472.5,260C 473.244,261.039 474.244,261.539 475.5,261.5C 475.833,261.5 476.167,261.5 476.5,261.5C 476.953,262.458 477.619,263.292 478.5,264C 481.824,264.943 485.157,265.776 488.5,266.5C 488.842,267.338 489.508,267.672 490.5,267.5C 490.833,267.5 491.167,267.5 491.5,267.5C 491.5,268.5 491.5,269.5 491.5,270.5C 494.157,270.162 496.49,270.829 498.5,272.5C 497.975,273.192 497.308,273.692 496.5,274C 493.518,274.498 490.518,274.665 487.5,274.5C 487.167,274.5 486.833,274.5 486.5,274.5C 484.485,273.076 482.152,272.41 479.5,272.5C 476.325,270.12 472.658,269.12 468.5,269.5C 468.389,268.883 468.056,268.383 467.5,268C 458.159,264.979 448.492,263.479 438.5,263.5C 438.389,262.883 438.056,262.383 437.5,262C 426.471,258.98 415.138,257.48 403.5,257.5C 397.42,255.622 391.087,254.289 384.5,253.5C 376.862,252.503 369.196,252.169 361.5,252.5C 351.321,252.062 341.155,251.395 331,250.5C 317.17,251.667 303.337,251.667 289.5,250.5C 288.833,250.5 288.167,250.5 287.5,250.5C 285.236,249.781 282.903,249.448 280.5,249.5C 278.62,249.771 277.287,249.104 276.5,247.5C 276.5,246.167 276.5,244.833 276.5,243.5C 275.167,243.5 273.833,243.5 272.5,243.5C 272.167,243.5 271.833,243.5 271.5,243.5C 271.389,242.883 271.056,242.383 270.5,242C 268.19,241.503 265.857,241.337 263.5,241.5C 263.5,240.167 263.5,238.833 263.5,237.5C 264.186,236.152 265.186,234.985 266.5,234C 258.956,232.392 251.623,232.892 244.5,235.5C 241.167,235.833 237.833,236.167 234.5,236.5C 223.2,237.611 211.867,239.278 200.5,241.5C 200.137,242.183 199.804,242.85 199.5,243.5C 192.625,245.47 185.625,247.303 178.5,249C 176.68,249.2 175.347,250.034 174.5,251.5C 174.167,251.5 173.833,251.5 173.5,251.5C 170.09,251.457 166.757,251.957 163.5,253C 152.548,256.807 141.881,260.973 131.5,265.5C 128.054,265.018 124.721,265.018 121.5,265.5C 119.313,266.758 116.98,267.758 114.5,268.5C 111.068,268.757 107.734,269.424 104.5,270.5C 104.201,267.358 102.534,265.191 99.5,264C 100.899,260.936 103.232,258.936 106.5,258C 105.5,257.333 104.5,257.333 103.5,258C 99.6367,260.017 95.8034,261.85 92,263.5C 88.9031,262.711 88.7364,261.544 91.5,260C 90.6243,258.415 89.2909,257.415 87.5,257C 90.0459,255.56 92.7126,254.394 95.5,253.5C 96.8333,254.833 98.1667,254.833 99.5,253.5C 100.478,253.977 101.311,254.643 102,255.5C 103.445,253.388 103.278,251.222 101.5,249C 103.441,248.257 105.274,248.424 107,249.5C 106.229,247.82 106.395,246.153 107.5,244.5C 110.518,242.6 113.851,241.267 117.5,240.5C 127.925,237.235 138.258,233.735 148.5,230C 149.381,229.292 150.047,228.458 150.5,227.5C 158.602,224.391 166.935,222.057 175.5,220.5C 178.884,220.34 182.217,220.673 185.5,221.5C 187.569,221.176 187.902,220.342 186.5,219C 200.485,216.36 214.152,213.527 227.5,210.5C 228.568,209.566 229.901,209.232 231.5,209.5C 234.482,209.037 237.482,208.704 240.5,208.5C 250.637,205.838 260.97,204.338 271.5,204C 287.497,203.5 303.497,203.333 319.5,203.5 Z"/></g>
<g><path style="opacity:1" fill="#df4540" d="M 319.5,203.5 C 328.885,203.507 338.219,204.173 347.5,205.5C 347.167,206.167 346.833,206.833 346.5,207.5C 337.431,205.973 328.431,204.64 319.5,203.5 Z"/></g>
<g><path style="opacity:1" fill="#faaaa8" d="M 241.5,205.5 C 241.611,206.117 241.944,206.617 242.5,207C 241.584,207.278 240.918,207.778 240.5,208.5C 237.482,208.704 234.482,209.037 231.5,209.5C 234.192,206.819 237.525,205.486 241.5,205.5 Z"/></g>
<g><path style="opacity:0.055" fill="#a2a2a2" d="M 89.5,207.5 C 88.4863,208.674 87.153,209.34 85.5,209.5C 84.448,209.649 83.448,209.483 82.5,209C 85.196,208.31 87.3626,206.81 89,204.5C 89.4828,205.448 89.6495,206.448 89.5,207.5 Z"/></g>
<g><path style="opacity:1" fill="#fcbebd" d="M 347.5,205.5 C 351.49,205.999 355.49,206.499 359.5,207C 360.973,207.71 361.64,208.876 361.5,210.5C 356.605,209.121 351.605,208.121 346.5,207.5C 346.833,206.833 347.167,206.167 347.5,205.5 Z"/></g>
<g><path style="opacity:0.111" fill="#8e8e8e" d="M 483.5,208.5 C 482.5,208.833 481.833,209.5 481.5,210.5C 478.363,209.287 475.363,207.787 472.5,206C 476.308,206.369 479.975,207.203 483.5,208.5 Z"/></g>
<g><path style="opacity:0.203" fill="#afafaf" d="M 487.5,205.5 C 494.399,205.652 501.232,206.985 508,209.5C 509.681,209.392 510.848,208.725 511.5,207.5C 513.843,208.967 513.51,210.301 510.5,211.5C 506.194,209.943 501.86,209.61 497.5,210.5C 497.5,212.5 497.5,214.5 497.5,216.5C 495.901,216.768 494.568,216.434 493.5,215.5C 490.897,213.552 487.564,211.885 483.5,210.5C 484.841,210.645 486.174,209.979 487.5,208.5C 489.109,208.906 490.443,208.906 491.5,208.5C 489.816,207.85 488.483,206.85 487.5,205.5 Z"/></g>
<g><path style="opacity:0.112" fill="#9a9a9a" d="M 482.5,213.5 C 483.609,213.557 484.609,213.89 485.5,214.5C 485.833,215.833 486.167,215.833 486.5,214.5C 487.959,214.433 489.292,214.766 490.5,215.5C 490.5,216.167 490.5,216.833 490.5,217.5C 488.585,217.216 486.919,217.549 485.5,218.5C 484.833,218.5 484.5,218.167 484.5,217.5C 484.167,216.167 483.833,216.167 483.5,217.5C 482.209,217.737 481.209,217.404 480.5,216.5C 482.048,216.179 482.715,215.179 482.5,213.5 Z"/></g>
<g><path style="opacity:0.104" fill="#9d9d9d" d="M 82.5,211.5 C 80.8525,213.326 78.8525,214.66 76.5,215.5C 76.9443,217.113 77.9443,218.28 79.5,219C 78.4734,219.513 77.4734,220.013 76.5,220.5C 75.1882,217.976 74.6882,215.309 75,212.5C 76.8709,213.668 78.3709,213.168 79.5,211C 80.7494,210.26 81.7494,210.427 82.5,211.5 Z"/></g>
<g><path style="opacity:1" fill="#e52016" d="M 227.5,210.5 C 214.152,213.527 200.485,216.36 186.5,219C 187.902,220.342 187.569,221.176 185.5,221.5C 182.217,220.673 178.884,220.34 175.5,220.5C 192.401,215.521 209.734,212.187 227.5,210.5 Z"/></g>
<g><path style="opacity:0.016" fill="#bebfbe" d="M 73.5,218.5 C 74.8333,219.167 74.8333,219.167 73.5,218.5 Z"/></g>
<g><path style="opacity:0.584" fill="#525252" d="M 483.5,217.5 C 483.833,217.5 484.167,217.5 484.5,217.5C 484.5,218.167 484.833,218.5 485.5,218.5C 487.216,218.629 488.883,218.962 490.5,219.5C 491.167,219.5 491.5,219.833 491.5,220.5C 490.508,220.328 489.842,220.662 489.5,221.5C 487.141,220.824 484.808,219.991 482.5,219C 483.056,218.617 483.389,218.117 483.5,217.5 Z"/></g>
<g><path style="opacity:0.084" fill="#999999" d="M 490.5,217.5 C 496.485,216.27 499.152,218.604 498.5,224.5C 497.508,224.672 496.842,224.338 496.5,223.5C 496.167,222.167 495.833,222.167 495.5,223.5C 494.508,223.672 493.842,223.338 493.5,222.5C 493.938,222.565 494.272,222.399 494.5,222C 493.473,221.487 492.473,220.987 491.5,220.5C 491.5,219.833 491.167,219.5 490.5,219.5C 490.5,218.833 490.5,218.167 490.5,217.5 Z"/></g>
<g><path style="opacity:0.206" fill="#878787" d="M 89.5,221.5 C 89.5,222.167 89.8333,222.5 90.5,222.5C 91.4709,223.962 91.1376,225.295 89.5,226.5C 87.9582,225.699 86.2915,225.366 84.5,225.5C 86.1423,224.197 87.8089,222.864 89.5,221.5 Z"/></g>
<g><path style="opacity:0.595" fill="#aaaaaa" d="M 513.5,233.5 C 513.5,232.833 513.167,232.5 512.5,232.5C 509.02,229.535 504.687,226.869 499.5,224.5C 501.871,224.872 504.371,224.872 507,224.5C 509.175,225.255 511.341,226.088 513.5,227C 514.811,229.274 514.811,231.44 513.5,233.5 Z"/></g>
<g><path style="opacity:0.145" fill="#909090" d="M 79.5,224.5 C 81.2161,224.629 82.8828,224.962 84.5,225.5C 83.2347,226.479 81.9014,227.479 80.5,228.5C 78.8333,227.667 77.1667,226.833 75.5,226C 77.0581,225.79 78.3915,225.29 79.5,224.5 Z"/></g>
<g><path style="opacity:1" fill="#e21a14" d="M 373.5,226.5 C 388.781,228.25 403.781,230.917 418.5,234.5C 414.486,234.666 410.486,234.499 406.5,234C 398.631,231.523 390.631,230.689 382.5,231.5C 382.5,230.5 382.5,229.5 382.5,228.5C 379.813,228.664 377.146,228.497 374.5,228C 373.944,227.617 373.611,227.117 373.5,226.5 Z"/></g>
<g><path style="opacity:0.141" fill="#868686" d="M 509.5,233.5 C 506.055,233.806 502.389,233.806 498.5,233.5C 497.9,232.1 496.9,231.1 495.5,230.5C 496.117,230.389 496.617,230.056 497,229.5C 501.111,231.372 505.278,232.705 509.5,233.5 Z"/></g>
<g><path style="opacity:0.096" fill="#909090" d="M 512.5,232.5 C 513.167,232.5 513.5,232.833 513.5,233.5C 513.214,235.933 512.548,235.933 511.5,233.5C 511.5,232.833 511.833,232.5 512.5,232.5 Z"/></g>
<g><path style="opacity:0.729" fill="#d85851" d="M 263.5,237.5 C 262.391,236.71 261.058,236.21 259.5,236C 260.5,235.667 261.5,235.333 262.5,235C 256.49,234.591 250.49,234.758 244.5,235.5C 251.623,232.892 258.956,232.392 266.5,234C 265.186,234.985 264.186,236.152 263.5,237.5 Z"/></g>
<g><path style="opacity:0.079" fill="#989898" d="M 498.5,233.5 C 498.408,235.848 497.408,237.514 495.5,238.5C 494.817,236.824 493.483,236.157 491.5,236.5C 489.266,234.554 486.599,233.387 483.5,233C 482.483,231.951 482.316,230.784 483,229.5C 485.381,230.435 487.881,230.768 490.5,230.5C 490.351,231.552 490.517,232.552 491,233.5C 493.288,233.263 495.788,233.263 498.5,233.5 Z"/></g>
<g><path style="opacity:1" fill="#df231c" d="M 150.5,227.5 C 150.047,228.458 149.381,229.292 148.5,230C 138.258,233.735 127.925,237.235 117.5,240.5C 128.028,235.208 139.028,230.875 150.5,227.5 Z"/></g>
<g><path style="opacity:0.176" fill="#ef8783" d="M 244.5,235.5 C 241.456,237.011 238.122,237.678 234.5,237.5C 234.5,237.167 234.5,236.833 234.5,236.5C 237.833,236.167 241.167,235.833 244.5,235.5 Z"/></g>
<g><path style="opacity:0.251" fill="#c6c7c6" d="M 480.5,235.5 C 479.147,236.867 479.481,237.867 481.5,238.5C 482.386,237.675 482.719,236.675 482.5,235.5C 485.43,236.299 488.43,236.632 491.5,236.5C 493.483,236.157 494.817,236.824 495.5,238.5C 493.958,237.699 492.292,237.366 490.5,237.5C 490.343,238.873 490.51,240.207 491,241.5C 493.544,243.267 496.044,244.934 498.5,246.5C 491.738,243.691 484.738,241.691 477.5,240.5C 477.64,238.876 476.973,237.71 475.5,237C 476.646,236.355 477.646,235.522 478.5,234.5C 479.183,234.863 479.85,235.196 480.5,235.5 Z M 480.5,235.5 C 481.167,235.5 481.833,235.5 482.5,235.5C 482.719,236.675 482.386,237.675 481.5,238.5C 479.481,237.867 479.147,236.867 480.5,235.5 Z"/></g>
<g><path style="opacity:1" fill="#de3d2e" d="M 234.5,236.5 C 234.5,236.833 234.5,237.167 234.5,237.5C 226.259,239.348 217.926,240.681 209.5,241.5C 206.612,240.99 204.279,241.656 202.5,243.5C 201.833,243.5 201.167,243.5 200.5,243.5C 200.167,243.5 199.833,243.5 199.5,243.5C 199.804,242.85 200.137,242.183 200.5,241.5C 211.867,239.278 223.2,237.611 234.5,236.5 Z"/></g>
<g><path style="opacity:0.725" fill="#c95756" d="M 209.5,241.5 C 207.343,242.407 205.01,243.073 202.5,243.5C 204.279,241.656 206.612,240.99 209.5,241.5 Z"/></g>
<g><path style="opacity:1" fill="#ca2f2c" d="M 263.5,237.5 C 263.5,238.833 263.5,240.167 263.5,241.5C 265.857,241.337 268.19,241.503 270.5,242C 271.056,242.383 271.389,242.883 271.5,243.5C 267.606,243.89 263.94,243.223 260.5,241.5C 260.815,239.517 261.815,238.184 263.5,237.5 Z"/></g>
<g><path style="opacity:1" fill="#cf2721" d="M 453.5,242.5 C 459.095,243.232 464.429,244.565 469.5,246.5C 463.814,246.079 458.481,244.745 453.5,242.5 Z"/></g>
<g><path style="opacity:0.871" fill="#d55d55" d="M 199.5,243.5 C 199.833,243.5 200.167,243.5 200.5,243.5C 192.254,247.031 183.587,249.698 174.5,251.5C 175.347,250.034 176.68,249.2 178.5,249C 185.625,247.303 192.625,245.47 199.5,243.5 Z"/></g>
<g><path style="opacity:0.49" fill="#ec625e" d="M 272.5,243.5 C 273.833,243.5 275.167,243.5 276.5,243.5C 276.5,244.833 276.5,246.167 276.5,247.5C 275.5,245.833 274.167,244.5 272.5,243.5 Z"/></g>
<g><path style="opacity:1" fill="#d4635a" d="M 280.5,249.5 C 282.903,249.448 285.236,249.781 287.5,250.5C 287.842,251.338 288.508,251.672 289.5,251.5C 288.054,252.613 286.387,252.78 284.5,252C 283.142,251.066 281.808,250.232 280.5,249.5 Z"/></g>
<g><path style="opacity:1" fill="#da1a18" d="M 469.5,246.5 C 474.995,247.251 480.328,248.585 485.5,250.5C 486.167,251.167 486.833,251.833 487.5,252.5C 485.393,253.468 483.059,253.802 480.5,253.5C 479.833,253.5 479.167,253.5 478.5,253.5C 476.972,252.691 475.306,252.024 473.5,251.5C 474.609,250.71 475.942,250.21 477.5,250C 474.599,249.125 471.932,247.958 469.5,246.5 Z"/></g>
<g><path style="opacity:0.8" fill="#ce514c" d="M 289.5,251.5 C 289.5,251.167 289.5,250.833 289.5,250.5C 303.337,251.667 317.17,251.667 331,250.5C 341.155,251.395 351.321,252.062 361.5,252.5C 361.5,252.833 361.5,253.167 361.5,253.5C 347.825,252.329 334.325,252.329 321,253.5C 310.528,252.596 300.028,251.93 289.5,251.5 Z"/></g>
<g><path style="opacity:1" fill="#d44a40" d="M 173.5,251.5 C 160.84,256.944 147.84,261.61 134.5,265.5C 133.5,265.5 132.5,265.5 131.5,265.5C 141.881,260.973 152.548,256.807 163.5,253C 166.757,251.957 170.09,251.457 173.5,251.5 Z"/></g>
<g><path style="opacity:1" fill="#db2922" d="M 361.5,253.5 C 361.5,253.167 361.5,252.833 361.5,252.5C 369.196,252.169 376.862,252.503 384.5,253.5C 391.087,254.289 397.42,255.622 403.5,257.5C 396.797,257.162 390.13,256.495 383.5,255.5C 382.737,254.732 381.737,254.232 380.5,254C 375.177,253.501 369.844,253.334 364.5,253.5C 363.5,253.5 362.5,253.5 361.5,253.5 Z"/></g>
<g><path style="opacity:0.333" fill="#e3625e" d="M 473.5,251.5 C 475.306,252.024 476.972,252.691 478.5,253.5C 478.842,254.338 479.508,254.672 480.5,254.5C 480.5,254.833 480.5,255.167 480.5,255.5C 477.341,255.519 474.674,254.352 472.5,252C 472.728,251.601 473.062,251.435 473.5,251.5 Z"/></g>
<g><path style="opacity:1" fill="#c5594f" d="M 487.5,252.5 C 488.901,252.971 490.234,253.638 491.5,254.5C 491.376,255.107 491.043,255.44 490.5,255.5C 488.266,255.62 486.099,255.287 484,254.5C 482.97,254.836 482.47,255.503 482.5,256.5C 481.833,256.5 481.5,256.167 481.5,255.5C 481.5,254.833 481.167,254.5 480.5,254.5C 480.5,254.167 480.5,253.833 480.5,253.5C 483.059,253.802 485.393,253.468 487.5,252.5 Z"/></g>
<g><path style="opacity:0.4" fill="#cd5753" d="M 364.5,253.5 C 369.844,253.334 375.177,253.501 380.5,254C 381.737,254.232 382.737,254.732 383.5,255.5C 377.008,255.006 370.675,254.339 364.5,253.5 Z"/></g>
<g><path style="opacity:0.24" fill="#b3acac" d="M 485.5,250.5 C 488.58,250.748 491.58,251.414 494.5,252.5C 495.442,252.392 496.275,252.059 497,251.5C 500.867,253.031 504.7,254.364 508.5,255.5C 503.61,257.206 499.11,256.54 495,253.5C 494.508,254.549 494.674,255.549 495.5,256.5C 493.345,257.001 491.678,258.001 490.5,259.5C 489.167,258.833 487.833,258.167 486.5,257.5C 487.189,256.226 488.023,256.226 489,257.5C 489.717,256.956 490.217,256.289 490.5,255.5C 491.043,255.44 491.376,255.107 491.5,254.5C 490.234,253.638 488.901,252.971 487.5,252.5C 486.833,251.833 486.167,251.167 485.5,250.5 Z"/></g>
<g><path style="opacity:1" fill="#cf443f" d="M 482.5,256.5 C 483.833,256.833 485.167,257.167 486.5,257.5C 487.833,258.167 489.167,258.833 490.5,259.5C 490.833,259.5 491.167,259.5 491.5,259.5C 488.713,260.477 485.713,260.81 482.5,260.5C 480.815,259.156 479.148,259.323 477.5,261C 478.527,261.513 479.527,262.013 480.5,262.5C 481.568,263.434 482.901,263.768 484.5,263.5C 485.609,263.557 486.609,263.89 487.5,264.5C 487.833,265.167 488.167,265.833 488.5,266.5C 485.157,265.776 481.824,264.943 478.5,264C 477.619,263.292 476.953,262.458 476.5,261.5C 476.167,260.167 475.833,260.167 475.5,261.5C 474.244,261.539 473.244,261.039 472.5,260C 476.147,259.226 479.814,258.559 483.5,258C 482.944,257.617 482.611,257.117 482.5,256.5 Z"/></g>
<g><path style="opacity:1" fill="#d52f25" d="M 403.5,257.5 C 415.138,257.48 426.471,258.98 437.5,262C 438.056,262.383 438.389,262.883 438.5,263.5C 426.582,262.224 414.916,260.224 403.5,257.5 Z"/></g>
<g><path style="opacity:1" fill="#b77c79" d="M 491.5,259.5 C 493.63,260.032 495.63,260.865 497.5,262C 494.881,261.917 492.214,261.75 489.5,261.5C 489.297,263.39 489.963,264.89 491.5,266C 490.944,266.383 490.611,266.883 490.5,267.5C 489.508,267.672 488.842,267.338 488.5,266.5C 488.167,265.833 487.833,265.167 487.5,264.5C 488.78,262.894 488.28,261.894 486,261.5C 484.97,261.836 484.47,262.503 484.5,263.5C 482.901,263.768 481.568,263.434 480.5,262.5C 481.833,262.5 482.5,261.833 482.5,260.5C 485.713,260.81 488.713,260.477 491.5,259.5 Z"/></g>
<g><path style="opacity:1" fill="#ee1511" d="M 107.5,244.5 C 106.395,246.153 106.229,247.82 107,249.5C 105.274,248.424 103.441,248.257 101.5,249C 103.278,251.222 103.445,253.388 102,255.5C 101.311,254.643 100.478,253.977 99.5,253.5C 98.1667,254.833 96.8333,254.833 95.5,253.5C 92.7126,254.394 90.0459,255.56 87.5,257C 89.2909,257.415 90.6243,258.415 91.5,260C 88.7364,261.544 88.9031,262.711 92,263.5C 95.8034,261.85 99.6367,260.017 103.5,258C 104.5,257.333 105.5,257.333 106.5,258C 103.232,258.936 100.899,260.936 99.5,264C 102.534,265.191 104.201,267.358 104.5,270.5C 107.734,269.424 111.068,268.757 114.5,268.5C 114.5,268.833 114.5,269.167 114.5,269.5C 114.167,269.5 113.833,269.5 113.5,269.5C 112.508,269.328 111.842,269.662 111.5,270.5C 111.167,270.5 110.833,270.5 110.5,270.5C 109.833,270.5 109.5,270.833 109.5,271.5C 108.833,271.5 108.167,271.5 107.5,271.5C 106.167,271.5 104.833,271.5 103.5,271.5C 103.853,269.365 103.02,268.032 101,267.5C 99.2654,269.083 97.4321,270.416 95.5,271.5C 94.8333,271.5 94.1667,271.5 93.5,271.5C 92.448,271.649 91.448,271.483 90.5,271C 91.2524,270.329 91.5858,269.496 91.5,268.5C 92.3382,268.158 92.6716,267.492 92.5,266.5C 93.8333,266.167 93.8333,265.833 92.5,265.5C 89.8344,265.933 87.1677,266.433 84.5,267C 84.9574,267.414 85.2907,267.914 85.5,268.5C 83.5891,269.477 81.5891,270.143 79.5,270.5C 76.9824,268.643 76.9824,266.81 79.5,265C 77.2177,263.916 76.8843,262.416 78.5,260.5C 83.4607,256.68 88.7941,253.347 94.5,250.5C 98.8283,248.501 103.162,246.501 107.5,244.5 Z M 92.5,266.5 C 92.6716,267.492 92.3382,268.158 91.5,268.5C 90.5084,268.672 89.8417,268.338 89.5,267.5C 90.391,266.89 91.391,266.557 92.5,266.5 Z"/></g>
<g><path style="opacity:0.012" fill="#7f807f" d="M 492.5,266.5 C 492.897,265.475 493.563,265.308 494.5,266C 493.906,266.464 493.239,266.631 492.5,266.5 Z"/></g>
<g><path style="opacity:1" fill="#d63f35" d="M 92.5,265.5 C 92.5,265.833 92.5,266.167 92.5,266.5C 91.391,266.557 90.391,266.89 89.5,267.5C 88.1667,267.5 87.5,268.167 87.5,269.5C 85.825,271.002 83.9917,272.335 82,273.5C 81.3021,272.309 80.4687,271.309 79.5,270.5C 81.5891,270.143 83.5891,269.477 85.5,268.5C 85.2907,267.914 84.9574,267.414 84.5,267C 87.1677,266.433 89.8344,265.933 92.5,265.5 Z"/></g>
<g><path style="opacity:0.02" fill="#949494" d="M 495.5,265.5 C 497.337,265.639 497.67,266.306 496.5,267.5C 495.702,267.043 495.369,266.376 495.5,265.5 Z"/></g>
<g><path style="opacity:1" fill="#d4302c" d="M 438.5,263.5 C 448.492,263.479 458.159,264.979 467.5,268C 468.056,268.383 468.389,268.883 468.5,269.5C 458.589,267.954 448.589,265.954 438.5,263.5 Z"/></g>
<g><path style="opacity:0.514" fill="#c46e68" d="M 78.5,260.5 C 76.8843,262.416 77.2177,263.916 79.5,265C 76.9824,266.81 76.9824,268.643 79.5,270.5C 77.8008,270.66 76.1341,270.494 74.5,270C 75.6341,268.984 75.3008,268.317 73.5,268C 74.5,267.167 75.5,266.333 76.5,265.5C 75.9984,264.284 75.6651,263.117 75.5,262C 76.2438,260.961 77.2438,260.461 78.5,260.5 Z"/></g>
<g><path style="opacity:0.792" fill="#c87c78" d="M 131.5,265.5 C 132.5,265.5 133.5,265.5 134.5,265.5C 129.529,267.401 124.695,269.735 120,272.5C 119.601,272.272 119.435,271.938 119.5,271.5C 119.932,270.29 120.599,269.29 121.5,268.5C 120.167,267.5 120.167,266.5 121.5,265.5C 124.721,265.018 128.054,265.018 131.5,265.5 Z"/></g>
<g><path style="opacity:1" fill="#d44034" d="M 468.5,269.5 C 472.658,269.12 476.325,270.12 479.5,272.5C 475.573,272.074 471.907,271.074 468.5,269.5 Z"/></g>
<g><path style="opacity:0.012" fill="#a9aaa9" d="M 505.5,270.5 C 506.833,271.167 506.833,271.167 505.5,270.5 Z"/></g>
<g><path style="opacity:1" fill="#bf6064" d="M 89.5,267.5 C 89.8417,268.338 90.5084,268.672 91.5,268.5C 91.5858,269.496 91.2524,270.329 90.5,271C 91.448,271.483 92.448,271.649 93.5,271.5C 91.7116,272.622 89.7116,272.789 87.5,272C 88.7736,271.023 88.7736,270.189 87.5,269.5C 87.5,268.167 88.1667,267.5 89.5,267.5 Z"/></g>
<g><path style="opacity:1" fill="#c9403d" d="M 121.5,265.5 C 120.167,266.5 120.167,267.5 121.5,268.5C 120.599,269.29 119.932,270.29 119.5,271.5C 116.184,272.494 112.851,273.494 109.5,274.5C 107.726,274.113 106.059,273.447 104.5,272.5C 101.039,274.188 98.0394,273.854 95.5,271.5C 97.4321,270.416 99.2654,269.083 101,267.5C 103.02,268.032 103.853,269.365 103.5,271.5C 104.833,271.5 106.167,271.5 107.5,271.5C 108.167,272.833 108.833,272.833 109.5,271.5C 109.5,270.833 109.833,270.5 110.5,270.5C 110.833,271.833 111.167,271.833 111.5,270.5C 111.842,269.662 112.508,269.328 113.5,269.5C 113.833,270.833 114.167,270.833 114.5,269.5C 114.5,269.167 114.5,268.833 114.5,268.5C 116.98,267.758 119.313,266.758 121.5,265.5 Z"/></g>
<g><path style="opacity:0.91" fill="#c6504d" d="M 479.5,272.5 C 482.152,272.41 484.485,273.076 486.5,274.5C 483.848,274.59 481.515,273.924 479.5,272.5 Z"/></g>
<g><path style="opacity:1" fill="#e0241e" d="M 491.5,267.5 C 497.117,269.472 502.45,271.806 507.5,274.5C 507.5,275.5 507.5,276.5 507.5,277.5C 503.481,277.354 499.481,277.021 495.5,276.5C 492.572,276.435 489.905,275.768 487.5,274.5C 490.518,274.665 493.518,274.498 496.5,274C 497.308,273.692 497.975,273.192 498.5,272.5C 496.49,270.829 494.157,270.162 491.5,270.5C 491.5,269.5 491.5,268.5 491.5,267.5 Z"/></g>
<g><path style="opacity:1" fill="#ce493f" d="M 507.5,274.5 C 508.833,274.833 510.167,275.167 511.5,275.5C 511.5,276.833 511.5,278.167 511.5,279.5C 505.863,279.415 500.529,278.415 495.5,276.5C 499.481,277.021 503.481,277.354 507.5,277.5C 507.5,276.5 507.5,275.5 507.5,274.5 Z"/></g>
<g><path style="opacity:0.557" fill="#ac8084" d="M 511.5,279.5 C 511.5,278.167 511.5,276.833 511.5,275.5C 512.575,274.438 513.575,274.438 514.5,275.5C 512.009,276.541 512.009,277.374 514.5,278C 513.473,278.513 512.473,279.013 511.5,279.5 Z"/></g>
</svg>
