<?xml version="1.0" standalone="no"?>
<!DOCTYPE svg PUBLIC "-//W3C//DTD SVG 20010904//EN"
 "http://www.w3.org/TR/2001/REC-SVG-20010904/DTD/svg10.dtd">
<svg version="1.0" xmlns="http://www.w3.org/2000/svg"
 width="640.000000pt" height="427.000000pt" viewBox="0 0 640.000000 427.000000"
 preserveAspectRatio="xMidYMid meet">

<g transform="translate(0.000000,427.000000) scale(0.100000,-0.100000)"
fill="#000000" stroke="none">
<path d="M0 3085 l0 -1185 3200 0 3200 0 0 235 0 235 -2135 0 -2135 0 0 240 0
240 2135 0 2135 0 0 235 0 235 -2135 0 -2135 0 0 240 0 240 2135 0 2135 0 0
235 0 235 -3200 0 -3200 0 0 -1185z m1159 638 l87 -268 288 -5 288 -5 -231
-168 c-127 -93 -231 -169 -231 -171 0 -1 40 -125 89 -274 48 -150 87 -272 85
-272 -3 0 -104 73 -226 161 -122 89 -229 163 -237 165 -9 2 -117 -70 -241
-160 -123 -91 -226 -163 -228 -161 -2 1 35 121 82 266 47 145 86 268 86 273
-1 6 -104 85 -229 176 l-229 165 287 3 287 2 89 275 c49 151 91 273 93 271 2
-3 43 -125 91 -273z"/>
<path d="M0 1190 l0 -240 3200 0 3200 0 0 240 0 240 -3200 0 -3200 0 0 -240z"/>
<path d="M0 245 l0 -235 3200 0 3200 0 0 235 0 235 -3200 0 -3200 0 0 -235z"/>
</g>
</svg>
