<?xml version="1.0" encoding="UTF-8"?>
<!DOCTYPE svg PUBLIC "-//W3C//DTD SVG 1.1//EN" "http://www.w3.org/Graphics/SVG/1.1/DTD/svg11.dtd">
<svg xmlns="http://www.w3.org/2000/svg" version="1.1" width="512px" height="512px" style="shape-rendering:geometricPrecision; text-rendering:geometricPrecision; image-rendering:optimizeQuality; fill-rule:evenodd; clip-rule:evenodd" xmlns:xlink="http://www.w3.org/1999/xlink">
<g><path style="opacity:0.982" fill="#fe2929" d="M 451.5,185.5 C 442.833,185.5 434.167,185.5 425.5,185.5C 392.217,113.156 335.55,75.1564 255.5,71.5C 186.583,73.6953 133.749,103.695 97,161.5C 92.3534,169.126 88.5201,177.126 85.5,185.5C 76.8333,185.5 68.1667,185.5 59.5,185.5C 74.705,143.127 100.705,108.96 137.5,83C 201.177,42.6274 268.177,36.294 338.5,64C 392.976,88.9724 430.643,129.472 451.5,185.5 Z"/></g>
<g><path style="opacity:1" fill="#d40000" d="M 425.5,185.5 C 312.167,185.5 198.833,185.5 85.5,185.5C 88.5201,177.126 92.3534,169.126 97,161.5C 133.749,103.695 186.583,73.6953 255.5,71.5C 335.55,75.1564 392.217,113.156 425.5,185.5 Z"/></g>
<g><path style="opacity:1" fill="#f16c10" d="M 59.5,185.5 C 68.1667,185.5 76.8333,185.5 85.5,185.5C 198.833,185.5 312.167,185.5 425.5,185.5C 434.167,185.5 442.833,185.5 451.5,185.5C 451.5,185.833 451.5,186.167 451.5,186.5C 443.167,186.5 434.833,186.5 426.5,186.5C 312.5,186.5 198.5,186.5 84.5,186.5C 75.7489,186.197 67.0823,186.53 58.5,187.5C 58.3284,186.508 58.6618,185.842 59.5,185.5 Z"/></g>
<g><path style="opacity:1" fill="#ffd129" d="M 84.5,186.5 C 67.297,232.454 67.297,278.454 84.5,324.5C 75.566,325.092 66.8993,324.425 58.5,322.5C 42.5605,277.594 42.5605,232.594 58.5,187.5C 67.0823,186.53 75.7489,186.197 84.5,186.5 Z"/></g>
<g><path style="opacity:1" fill="#fecb01" d="M 84.5,186.5 C 198.5,186.5 312.5,186.5 426.5,186.5C 444.109,232.658 443.775,278.658 425.5,324.5C 312.167,324.5 198.833,324.5 85.5,324.5C 85.1667,324.5 84.8333,324.5 84.5,324.5C 67.297,278.454 67.297,232.454 84.5,186.5 Z"/></g>
<g><path style="opacity:1" fill="#ffd129" d="M 426.5,186.5 C 434.833,186.5 443.167,186.5 451.5,186.5C 459.907,208.601 463.907,231.601 463.5,255.5C 463.853,279.387 459.853,302.387 451.5,324.5C 442.833,324.5 434.167,324.5 425.5,324.5C 443.775,278.658 444.109,232.658 426.5,186.5 Z"/></g>
<g><path style="opacity:1" fill="#d50e00" d="M 152.5,194.5 C 158.482,198.809 164.482,203.142 170.5,207.5C 176.539,202.957 182.705,198.624 189,194.5C 194.727,198.95 200.56,203.283 206.5,207.5C 212.474,203.359 218.308,199.026 224,194.5C 221.522,205.084 219.022,215.751 216.5,226.5C 198.167,226.5 179.833,226.5 161.5,226.5C 158.5,215.833 155.5,205.167 152.5,194.5 Z"/></g>
<g><path style="opacity:1" fill="#d51000" d="M 135.5,232.5 C 129.833,232.5 124.167,232.5 118.5,232.5C 118.527,222.628 123.194,219.128 132.5,222C 135.1,224.984 136.1,228.484 135.5,232.5 Z"/></g>
<g><path style="opacity:1" fill="#d50b00" d="M 257.5,232.5 C 252.167,232.5 246.833,232.5 241.5,232.5C 240.718,222.438 245.052,218.938 254.5,222C 257.231,224.897 258.231,228.397 257.5,232.5 Z"/></g>
<g><path style="opacity:1" fill="#fde6b0" d="M 118.5,232.5 C 124.167,232.5 129.833,232.5 135.5,232.5C 135.5,232.833 135.5,233.167 135.5,233.5C 130.167,233.5 124.833,233.5 119.5,233.5C 119.5,256.167 119.5,278.833 119.5,301.5C 119.167,301.5 118.833,301.5 118.5,301.5C 118.5,278.5 118.5,255.5 118.5,232.5 Z"/></g>
<g><path style="opacity:1" fill="#fffefd" d="M 135.5,233.5 C 135.5,256.167 135.5,278.833 135.5,301.5C 130.167,301.5 124.833,301.5 119.5,301.5C 119.5,278.833 119.5,256.167 119.5,233.5C 124.833,233.5 130.167,233.5 135.5,233.5 Z"/></g>
<g><path style="opacity:1" fill="#d51706" d="M 154.5,232.5 C 165.833,232.5 177.167,232.5 188.5,232.5C 188.5,242.5 188.5,252.5 188.5,262.5C 191.287,263.477 194.287,263.81 197.5,263.5C 197.5,265.167 197.5,266.833 197.5,268.5C 205.833,268.5 214.167,268.5 222.5,268.5C 225.361,283.918 221.361,297.085 210.5,308C 208.473,309.879 206.14,311.046 203.5,311.5C 195.538,306.261 190.538,298.927 188.5,289.5C 188.5,288.5 188.5,287.5 188.5,286.5C 187.07,286.579 185.736,286.246 184.5,285.5C 183.506,290.456 183.173,295.456 183.5,300.5C 182.557,303.109 180.89,305.109 178.5,306.5C 178.5,293.5 178.5,280.5 178.5,267.5C 176.833,267.5 175.167,267.5 173.5,267.5C 173.5,281.833 173.5,296.167 173.5,310.5C 172.833,311.167 172.167,311.833 171.5,312.5C 170.29,312.068 169.29,311.401 168.5,310.5C 168.5,296.5 168.5,282.5 168.5,268.5C 167.081,267.549 165.415,267.216 163.5,267.5C 163.829,280.344 163.495,293.011 162.5,305.5C 160.782,303.777 159.449,301.777 158.5,299.5C 158.5,289.167 158.5,278.833 158.5,268.5C 157.432,267.566 156.099,267.232 154.5,267.5C 154.5,255.833 154.5,244.167 154.5,232.5 Z"/></g>
<g><path style="opacity:1" fill="#fefbfb" d="M 188.5,232.5 C 199.833,232.5 211.167,232.5 222.5,232.5C 222.5,244.167 222.5,255.833 222.5,267.5C 214.5,267.5 206.5,267.5 198.5,267.5C 198.5,265.833 198.5,264.167 198.5,262.5C 195.167,262.5 191.833,262.5 188.5,262.5C 188.5,252.5 188.5,242.5 188.5,232.5 Z"/></g>
<g><path style="opacity:1" fill="#fefffe" d="M 241.5,233.5 C 246.833,233.5 252.167,233.5 257.5,233.5C 257.5,256.167 257.5,278.833 257.5,301.5C 252.167,301.5 246.833,301.5 241.5,301.5C 241.5,278.833 241.5,256.167 241.5,233.5 Z"/></g>
<g><path style="opacity:1" fill="#ee8843" d="M 154.5,232.5 C 154.5,244.167 154.5,255.833 154.5,267.5C 156.099,267.232 157.432,267.566 158.5,268.5C 157.167,268.5 155.833,268.5 154.5,268.5C 154.5,275.167 154.5,281.833 154.5,288.5C 153.167,269.833 153.167,251.167 154.5,232.5 Z"/></g>
<g><path style="opacity:1" fill="#d51309" d="M 200.5,238.5 C 203.85,238.335 207.183,238.502 210.5,239C 211.333,239.833 212.167,240.667 213,241.5C 213.667,247.5 213.667,253.5 213,259.5C 209.662,262.318 205.829,263.151 201.5,262C 199.333,261.167 197.833,259.667 197,257.5C 196.333,252.5 196.333,247.5 197,242.5C 198.376,241.295 199.542,239.962 200.5,238.5 Z"/></g>
<g><path style="opacity:1" fill="#fcc904" d="M 176.5,260.5 C 176.665,257.15 176.498,253.817 176,250.5C 172.714,246.515 169.381,246.515 166,250.5C 165.502,253.817 165.335,257.15 165.5,260.5C 163.208,260.756 161.041,260.423 159,259.5C 158.5,253.175 158.334,246.842 158.5,240.5C 167.085,240.183 175.585,240.517 184,241.5C 184.667,247.167 184.667,252.833 184,258.5C 181.865,260.278 179.365,260.945 176.5,260.5 Z"/></g>
<g><path style="opacity:1" fill="#0f46a6" d="M 176.5,260.5 C 172.833,260.5 169.167,260.5 165.5,260.5C 165.335,257.15 165.502,253.817 166,250.5C 169.381,246.515 172.714,246.515 176,250.5C 176.498,253.817 176.665,257.15 176.5,260.5 Z"/></g>
<g><path style="opacity:1" fill="#1642a5" d="M 180.5,265.5 C 185.5,265.5 190.5,265.5 195.5,265.5C 195.666,270.179 195.499,274.845 195,279.5C 192.487,283.212 188.987,284.378 184.5,283C 182.951,281.786 181.785,280.286 181,278.5C 180.501,274.179 180.334,269.846 180.5,265.5 Z"/></g>
<g><path style="opacity:1" fill="#e35958" d="M 188.5,262.5 C 191.833,262.5 195.167,262.5 198.5,262.5C 198.5,264.167 198.5,265.833 198.5,267.5C 206.5,267.5 214.5,267.5 222.5,267.5C 222.5,267.833 222.5,268.167 222.5,268.5C 214.167,268.5 205.833,268.5 197.5,268.5C 197.5,266.833 197.5,265.167 197.5,263.5C 194.287,263.81 191.287,263.477 188.5,262.5 Z"/></g>
<g><path style="opacity:1" fill="#fee37e" d="M 158.5,268.5 C 158.5,278.833 158.5,289.167 158.5,299.5C 157.883,299.389 157.383,299.056 157,298.5C 155.857,295.223 155.023,291.89 154.5,288.5C 154.5,281.833 154.5,275.167 154.5,268.5C 155.833,268.5 157.167,268.5 158.5,268.5 Z"/></g>
<g><path style="opacity:1" fill="#ee8b4e" d="M 168.5,268.5 C 167.167,268.5 165.833,268.5 164.5,268.5C 164.5,281.5 164.5,294.5 164.5,307.5C 163.5,307.167 162.833,306.5 162.5,305.5C 163.495,293.011 163.829,280.344 163.5,267.5C 165.415,267.216 167.081,267.549 168.5,268.5 Z"/></g>
<g><path style="opacity:1" fill="#fee57f" d="M 168.5,268.5 C 168.5,282.5 168.5,296.5 168.5,310.5C 166.77,309.974 165.436,308.974 164.5,307.5C 164.5,294.5 164.5,281.5 164.5,268.5C 165.833,268.5 167.167,268.5 168.5,268.5 Z"/></g>
<g><path style="opacity:1" fill="#fdda79" d="M 178.5,306.5 C 177.415,308.587 175.749,309.92 173.5,310.5C 173.5,296.167 173.5,281.833 173.5,267.5C 175.167,267.5 176.833,267.5 178.5,267.5C 178.5,280.5 178.5,293.5 178.5,306.5 Z"/></g>
<g><path style="opacity:1" fill="#fec900" d="M 198.5,271.5 C 204.5,271.5 210.5,271.5 216.5,271.5C 216.891,278.921 216.391,286.254 215,293.5C 211.469,299.182 206.635,300.682 200.5,298C 195.034,292.108 194.201,285.608 198,278.5C 198.497,276.19 198.663,273.857 198.5,271.5 Z"/></g>
<g><path style="opacity:1" fill="#fcd77b" d="M 188.5,289.5 C 187.669,293.498 186.003,297.165 183.5,300.5C 183.173,295.456 183.506,290.456 184.5,285.5C 185.736,286.246 187.07,286.579 188.5,286.5C 188.5,287.5 188.5,288.5 188.5,289.5 Z"/></g>
<g><path style="opacity:1" fill="#fefaf8" d="M 188.5,289.5 C 190.538,298.927 195.538,306.261 203.5,311.5C 193.063,317.467 182.396,317.8 171.5,312.5C 172.167,311.833 172.833,311.167 173.5,310.5C 175.749,309.92 177.415,308.587 178.5,306.5C 180.89,305.109 182.557,303.109 183.5,300.5C 186.003,297.165 187.669,293.498 188.5,289.5 Z"/></g>
<g><path style="opacity:1" fill="#edda7e" d="M 118.5,301.5 C 118.833,301.5 119.167,301.5 119.5,301.5C 124.833,301.5 130.167,301.5 135.5,301.5C 136.209,302.404 137.209,302.737 138.5,302.5C 138.5,304.167 138.5,305.833 138.5,307.5C 140.099,307.232 141.432,307.566 142.5,308.5C 132.167,308.5 121.833,308.5 111.5,308.5C 112.568,307.566 113.901,307.232 115.5,307.5C 115.5,305.833 115.5,304.167 115.5,302.5C 116.791,302.737 117.791,302.404 118.5,301.5 Z"/></g>
<g><path style="opacity:1" fill="#f2d878" d="M 241.5,233.5 C 241.5,233.167 241.5,232.833 241.5,232.5C 246.833,232.5 252.167,232.5 257.5,232.5C 258.332,255.33 258.832,278.33 259,301.5C 260.319,303.25 260.819,305.25 260.5,307.5C 262.099,307.232 263.432,307.566 264.5,308.5C 254.5,308.5 244.5,308.5 234.5,308.5C 235.568,307.566 236.901,307.232 238.5,307.5C 238.5,305.833 238.5,304.167 238.5,302.5C 239.791,302.737 240.791,302.404 241.5,301.5C 246.833,301.5 252.167,301.5 257.5,301.5C 257.5,278.833 257.5,256.167 257.5,233.5C 252.167,233.5 246.833,233.5 241.5,233.5 Z"/></g>
<g><path style="opacity:1" fill="#0945a8" d="M 111.5,308.5 C 121.833,308.5 132.167,308.5 142.5,308.5C 143.473,310.948 143.806,313.615 143.5,316.5C 132.5,316.5 121.5,316.5 110.5,316.5C 110.194,313.615 110.527,310.948 111.5,308.5 Z"/></g>
<g><path style="opacity:1" fill="#0044a9" d="M 234.5,308.5 C 244.5,308.5 254.5,308.5 264.5,308.5C 265.473,310.948 265.806,313.615 265.5,316.5C 254.833,316.5 244.167,316.5 233.5,316.5C 233.194,313.615 233.527,310.948 234.5,308.5 Z"/></g>
<g><path style="opacity:0.982" fill="#fe2929" d="M 58.5,322.5 C 66.8993,324.425 75.566,325.092 84.5,324.5C 84.8333,324.5 85.1667,324.5 85.5,324.5C 108.431,378.261 147.764,414.095 203.5,432C 267.757,448.515 325.423,435.848 376.5,394C 398.4,374.68 414.733,351.513 425.5,324.5C 434.167,324.5 442.833,324.5 451.5,324.5C 427.275,389.89 381.941,433.39 315.5,455C 230.567,476.681 158.067,455.848 98,392.5C 80.4311,371.737 67.2645,348.403 58.5,322.5 Z"/></g>
<g><path style="opacity:1" fill="#d40000" d="M 85.5,324.5 C 198.833,324.5 312.167,324.5 425.5,324.5C 414.733,351.513 398.4,374.68 376.5,394C 325.423,435.848 267.757,448.515 203.5,432C 147.764,414.095 108.431,378.261 85.5,324.5 Z"/></g>
</svg>
